SplineFontDB: 3.2
FontName: HUBPSigla1
FullName: HUBPSigla 1
FamilyName: HUBPSigla
Weight: Book
Copyright: Generated by Fontographer 4.1.5
Version: Macromedia Fontographer 4.1.5 14/10/01
ItalicAngle: 0
UnderlinePosition: -143
UnderlineWidth: 20
Ascent: 800
Descent: 200
InvalidEm: 0
sfntRevision: 0x00010000
LayerCount: 2
Layer: 0 1 "Back" 1
Layer: 1 1 "Fore" 0
XUID: [1021 558 2008311692 5600]
StyleMap: 0x0040
FSType: 0
OS2Version: 0
OS2_WeightWidthSlopeOnly: 0
OS2_UseTypoMetrics: 0
CreationTime: 1003060651
ModificationTime: 1003060651
PfmFamily: 81
TTFWeight: 400
TTFWidth: 5
LineGap: 0
VLineGap: 0
Panose: 0 0 4 0 0 0 0 0 0 0
OS2TypoAscent: 917
OS2TypoAOffset: 0
OS2TypoDescent: -219
OS2TypoDOffset: 0
OS2TypoLinegap: 0
OS2WinAscent: 917
OS2WinAOffset: 0
OS2WinDescent: 219
OS2WinDOffset: 0
HheadAscent: 917
HheadAOffset: 0
HheadDescent: -219
HheadDOffset: 0
OS2SubXSize: 700
OS2SubYSize: 650
OS2SubXOff: 0
OS2SubYOff: 143
OS2SupXSize: 700
OS2SupYSize: 650
OS2SupXOff: 0
OS2SupYOff: 453
OS2StrikeYSize: 50
OS2StrikeYPos: 259
OS2Vendor: 'Alts'
OS2UnicodeRanges: 00000000.00000000.00000000.00000000
DEI: 91125
TtTable: prep
NPUSHB
 9
 7
 7
 6
 6
 1
 1
 0
 0
 1
SCANTYPE
PUSHW_1
 511
SCANCTRL
RCVT
ROUND[Grey]
WCVTP
RCVT
ROUND[Grey]
WCVTP
RCVT
ROUND[Grey]
WCVTP
RCVT
ROUND[Grey]
WCVTP
PUSHB_4
 3
 2
 70
 0
CALL
PUSHB_4
 5
 4
 70
 0
CALL
PUSHB_2
 2
 2
RCVT
ROUND[Grey]
WCVTP
PUSHB_2
 4
 4
RCVT
ROUND[Grey]
WCVTP
EndTTInstrs
TtTable: fpgm
NPUSHB
 1
 0
FDEF
SROUND
RCVT
DUP
PUSHB_1
 3
CINDEX
RCVT
SWAP
SUB
ROUND[Grey]
RTG
SWAP
ROUND[Grey]
ADD
WCVTP
ENDF
EndTTInstrs
ShortTable: cvt  21
  -155
  672
  85
  204
  14
  53
  35
  83
  23143
  4614
  -11592
  27160
  -2006
  24995
  3648
  -4398
  -32710
  10069
  -23929
  1
  13
EndShort
ShortTable: maxp 16
  1
  0
  91
  152
  6
  0
  0
  2
  8
  64
  10
  0
  123
  234
  1
  1
EndShort
LangName: 1033 "" "" "" "Macromedia Fontographer 4.1.5 HUBPSigla 1" "" "Macromedia Fontographer 4.1.5 14/10/01"
Encoding: UnicodeBmp
UnicodeInterp: none

StartChar: .notdef
Encoding: 65536 -1 0
Width: 500
GlyphClass: 1
Flags: W
LayerCount: 2
Fore
SplineSet
63 0 m 1,0,-1
 63 800 l 1,1,-1
 438 800 l 1,2,-1
 438 0 l 1,3,-1
 63 0 l 1,0,-1
125 63 m 1,4,-1
 375 63 l 1,5,-1
 375 738 l 1,6,-1
 125 738 l 1,7,-1
 125 63 l 1,4,-1
EndSplineSet
EndChar

StartChar: exclam
Encoding: 33 33 4
Width: 1090
GlyphClass: 1
Flags: W
LayerCount: 2
Fore
SplineSet
214 227 m 1,0,1
 65 325 65 325 65 493 c 0,2,3
 65 655 65 655 216 749 c 1,4,-1
 221 738 l 1,5,6
 118 667 118 667 118 499 c 0,7,8
 118 409 118 409 135 357 c 0,9,10
 158 286 158 286 221 236 c 1,11,-1
 214 227 l 1,0,1
364 607 m 2,12,13
 364 642 364 642 346 642 c 0,14,15
 337 642 337 642 303 629 c 1,16,-1
 303 637 l 1,17,-1
 415 695 l 1,18,-1
 415 337 l 2,19,20
 415 313 415 313 432 304 c 0,21,22
 442 299 442 299 472 297 c 1,23,-1
 472 289 l 1,24,-1
 307 289 l 1,25,-1
 307 297 l 1,26,27
 337 299 337 299 347 304 c 0,28,29
 364 313 364 313 364 337 c 2,30,-1
 364 607 l 2,12,13
852 236 m 1,31,32
 915 286 915 286 938 357 c 0,33,34
 955 409 955 409 955 499 c 0,35,36
 955 667 955 667 852 738 c 1,37,-1
 857 749 l 1,38,39
 1008 655 1008 655 1008 493 c 0,40,41
 1008 325 1008 325 859 227 c 1,42,-1
 852 236 l 1,31,32
563 599 m 1,43,44
 593 695 593 695 681 695 c 0,45,46
 774 695 774 695 774 615 c 0,47,48
 774 565 774 565 718 530 c 1,49,50
 795 500 795 500 795 417 c 0,51,52
 795 353 795 353 744 315 c 0,53,54
 698 281 698 281 631 281 c 0,55,56
 562 281 562 281 562 315 c 0,57,58
 562 336 562 336 585 336 c 0,59,60
 598 336 598 336 625 319 c 128,-1,61
 652 302 652 302 670 302 c 0,62,63
 707 302 707 302 729 327.5 c 128,-1,64
 751 353 751 353 751 390 c 0,65,66
 751 488 751 488 628 488 c 1,67,-1
 627 495 l 1,68,69
 726 528 726 528 726 595 c 0,70,71
 726 625 726 625 708 642.5 c 128,-1,72
 690 660 690 660 661 660 c 0,73,74
 607 660 607 660 571 596 c 1,75,-1
 563 599 l 1,43,44
EndSplineSet
EndChar

StartChar: quotedbl
Encoding: 34 34 5
Width: 845
GlyphClass: 1
Flags: W
LayerCount: 2
Fore
SplineSet
229 232 m 1,0,1
 80 330 80 330 80 498 c 0,2,3
 80 660 80 660 231 754 c 1,4,-1
 236 743 l 1,5,6
 133 672 133 672 133 504 c 0,7,8
 133 414 133 414 150 362 c 0,9,10
 173 291 173 291 236 241 c 1,11,-1
 229 232 l 1,0,1
607 241 m 1,12,13
 670 291 670 291 693 362 c 0,14,15
 710 414 710 414 710 504 c 0,16,17
 710 672 710 672 607 743 c 1,18,-1
 612 754 l 1,19,20
 763 660 763 660 763 498 c 0,21,22
 763 330 763 330 614 232 c 1,23,-1
 607 241 l 1,12,13
349 593 m 1,24,25
 434 579 434 579 471 551 c 0,26,27
 521 513 521 513 521 431 c 0,28,29
 521 365 521 365 475 325.5 c 128,-1,30
 429 286 429 286 360 286 c 0,31,32
 290 286 290 286 285 318 c 0,33,34
 281 344 281 344 312 344 c 0,35,36
 331 344 331 344 355.5 325.5 c 128,-1,37
 380 307 380 307 395 307 c 0,38,39
 433 307 433 307 456 337 c 128,-1,40
 479 367 479 367 479 412 c 0,41,42
 479 475 479 475 424 510 c 0,43,44
 380 536 380 536 311 541 c 0,45,46
 302 543 302 543 305 548 c 2,47,-1
 370 691 l 1,48,-1
 489 691 l 2,49,50
 510 691 510 691 523 707 c 1,51,-1
 528 703 l 1,52,-1
 501 644 l 1,53,-1
 375 644 l 1,54,-1
 349 593 l 1,24,25
EndSplineSet
EndChar

StartChar: numbersign
Encoding: 35 35 6
Width: 527
GlyphClass: 1
Flags: W
LayerCount: 2
Fore
SplineSet
270 413 m 1,0,-1
 292 391 l 1,1,-1
 203 300 l 1,2,-1
 465 300 l 1,3,-1
 465 269 l 1,4,-1
 170 269 l 1,5,-1
 94 191 l 1,6,-1
 168 118 l 1,7,-1
 465 118 l 1,8,-1
 465 87 l 1,9,-1
 201 87 l 1,10,-1
 283 4 l 1,11,-1
 261 -18 l 1,12,-1
 50 191 l 1,13,-1
 270 413 l 1,0,-1
EndSplineSet
EndChar

StartChar: dollar
Encoding: 36 36 7
Width: 491
GlyphClass: 1
Flags: W
LayerCount: 2
Fore
SplineSet
446 191 m 1,0,-1
 235 -18 l 1,1,-1
 214 4 l 1,2,-1
 295 87 l 1,3,-1
 32 87 l 1,4,-1
 32 118 l 1,5,-1
 328 118 l 1,6,-1
 403 191 l 1,7,-1
 326 269 l 1,8,-1
 32 269 l 1,9,-1
 32 300 l 1,10,-1
 294 300 l 1,11,-1
 205 391 l 1,12,-1
 226 413 l 1,13,-1
 446 191 l 1,0,-1
EndSplineSet
EndChar

StartChar: percent
Encoding: 37 37 8
Width: 915
GlyphClass: 1
Flags: W
LayerCount: 2
Fore
SplineSet
109 79 m 2,0,1
 109 113 109 113 95 121 c 0,2,3
 86 126 86 126 64 126 c 1,4,-1
 64 138 l 1,5,-1
 169 175 l 1,6,-1
 169 128 l 2,7,8
 169 122 169 122 172 122 c 256,9,10
 175 122 175 122 183.5 130.5 c 128,-1,11
 192 139 192 139 194 141 c 0,12,13
 238 175 238 175 280 175 c 0,14,15
 307 175 307 175 327 158 c 128,-1,16
 347 141 347 141 352 115 c 1,17,18
 406 175 406 175 463 175 c 256,19,20
 520 175 520 175 540 131 c 0,21,22
 553 103 553 103 553 40 c 2,23,-1
 553 -93 l 2,24,25
 553 -136 553 -136 597 -140 c 1,26,-1
 597 -150 l 1,27,-1
 448 -150 l 1,28,-1
 448 -140 l 1,29,30
 492 -136 492 -136 492 -93 c 2,31,-1
 492 51 l 2,32,33
 492 96 492 96 486 111 c 0,34,35
 475 138 475 138 437 138 c 0,36,37
 387 138 387 138 361 94 c 1,38,-1
 361 -93 l 2,39,40
 361 -136 361 -136 406 -140 c 1,41,-1
 406 -150 l 1,42,-1
 256 -150 l 1,43,-1
 256 -140 l 1,44,45
 301 -136 301 -136 301 -93 c 2,46,-1
 301 54 l 2,47,48
 301 138 301 138 252 138 c 0,49,50
 198 138 198 138 169 96 c 1,51,-1
 169 -93 l 2,52,53
 169 -136 169 -136 214 -140 c 1,54,-1
 214 -150 l 1,55,-1
 64 -150 l 1,56,-1
 64 -140 l 1,57,58
 109 -136 109 -136 109 -93 c 2,59,-1
 109 79 l 2,0,1
643 -40 m 1,60,-1
 655 -35 l 1,61,62
 673 -135 673 -135 748 -135 c 0,63,64
 771 -135 771 -135 787.5 -121 c 128,-1,65
 804 -107 804 -107 804 -84 c 0,66,67
 804 -53 804 -53 762 -28 c 0,68,69
 724 -6 724 -6 685 16 c 1,70,71
 643 47 643 47 643 89 c 0,72,73
 643 129 643 129 672.5 155 c 128,-1,74
 702 181 702 181 743 181 c 0,75,76
 762 181 762 181 795 168 c 0,77,78
 803 166 803 166 809 166 c 0,79,80
 819 166 819 166 821 175 c 1,81,-1
 831 175 l 1,82,-1
 831 78 l 1,83,-1
 819 78 l 1,84,85
 798 165 798 165 741 165 c 0,86,87
 719 165 719 165 703 152.5 c 128,-1,88
 687 140 687 140 687 119 c 0,89,90
 687 90 687 90 730 62 c 0,91,92
 770 38 770 38 811 13 c 0,93,94
 854 -18 854 -18 854 -56 c 0,95,96
 854 -100 854 -100 823.5 -125.5 c 128,-1,97
 793 -151 793 -151 748 -151 c 0,98,99
 734 -151 734 -151 697 -140 c 0,100,101
 679 -135 679 -135 669 -135 c 0,102,103
 657 -135 657 -135 653 -145 c 1,104,-1
 643 -150 l 1,105,-1
 643 -40 l 1,60,-1
EndSplineSet
EndChar

StartChar: ampersand
Encoding: 38 38 9
Width: 853
GlyphClass: 1
Flags: W
LayerCount: 2
Fore
SplineSet
73 369 m 0,0,1
 73 519 73 519 176.5 625 c 128,-1,2
 280 731 280 731 426 731 c 256,3,4
 572 731 572 731 676 625 c 128,-1,5
 780 519 780 519 780 369 c 0,6,7
 780 221 780 221 675.5 115 c 128,-1,8
 571 9 571 9 426 9 c 0,9,10
 280 9 280 9 176.5 115 c 128,-1,11
 73 221 73 221 73 369 c 0,0,1
757 369 m 0,12,13
 757 509 757 509 659.5 611.5 c 128,-1,14
 562 714 562 714 426 714 c 0,15,16
 291 714 291 714 193.5 611 c 128,-1,17
 96 508 96 508 96 369 c 256,18,19
 96 230 96 230 193.5 128 c 128,-1,20
 291 26 291 26 426 26 c 256,21,22
 561 26 561 26 659 128 c 128,-1,23
 757 230 757 230 757 369 c 0,12,13
346 557 m 1,24,25
 420 562 420 562 467 546 c 1,26,27
 491 511 491 511 483 157 c 1,28,-1
 422 157 l 1,29,-1
 422 486 l 1,30,-1
 346 486 l 1,31,-1
 346 557 l 1,24,25
EndSplineSet
EndChar

StartChar: quotesingle
Encoding: 39 39 10
Width: 453
GlyphClass: 1
Flags: W
LayerCount: 2
Fore
SplineSet
238 -56 m 2,0,1
 135 -56 135 -56 77 23 c 0,2,3
 33 83 33 83 33 149 c 0,4,5
 33 243 33 243 94 306 c 0,6,7
 146 360 146 360 221 374 c 1,8,-1
 221 813 l 1,9,-1
 243 813 l 1,10,-1
 243 -14 l 1,11,-1
 342 -14 l 1,12,-1
 342 813 l 1,13,-1
 364 813 l 1,14,-1
 364 -14 l 1,15,-1
 406 -14 l 1,16,-1
 406 -56 l 1,17,-1
 238 -56 l 2,0,1
EndSplineSet
EndChar

StartChar: parenleft
Encoding: 40 40 11
Width: 453
GlyphClass: 1
Flags: W
LayerCount: 2
Fore
SplineSet
50 -56 m 1,0,-1
 50 -14 l 1,1,-1
 92 -14 l 1,2,-1
 92 813 l 1,3,-1
 114 813 l 1,4,-1
 114 -14 l 1,5,-1
 213 -14 l 1,6,-1
 213 813 l 1,7,-1
 235 813 l 1,8,-1
 235 374 l 1,9,10
 310 360 310 360 362 306 c 0,11,12
 423 243 423 243 423 149 c 0,13,14
 423 83 423 83 379 23 c 0,15,16
 321 -56 321 -56 218 -56 c 2,17,-1
 50 -56 l 1,0,-1
EndSplineSet
EndChar

StartChar: parenright
Encoding: 41 41 12
Width: 280
GlyphClass: 1
Flags: W
LayerCount: 2
Fore
SplineSet
167 -103 m 2,0,1
 167 -140 167 -140 224 -140 c 1,2,-1
 224 -150 l 1,3,-1
 51 -150 l 1,4,-1
 51 -140 l 1,5,6
 108 -140 108 -140 108 -103 c 2,7,-1
 108 188 l 2,8,9
 108 225 108 225 51 225 c 1,10,-1
 51 235 l 1,11,-1
 224 235 l 1,12,-1
 224 225 l 1,13,14
 167 225 167 225 167 188 c 2,15,-1
 167 -103 l 2,0,1
EndSplineSet
EndChar

StartChar: asterisk
Encoding: 42 42 13
Width: 750
GlyphClass: 1
Flags: W
LayerCount: 2
Fore
SplineSet
467 608 m 1,0,1
 427 599 427 599 382 566 c 0,2,3
 349 541 349 541 318 509 c 0,4,5
 307 495 307 495 296 481 c 1,6,7
 310 489 310 489 310 408 c 0,8,9
 310 293 310 293 292 170 c 0,10,11
 290 160 290 160 358.5 136 c 128,-1,12
 427 112 427 112 434 116 c 0,13,14
 494 154 494 154 537.5 254 c 128,-1,15
 581 354 581 354 581 447 c 0,16,17
 581 599 581 599 467 608 c 1,0,1
113 611 m 1,18,-1
 290 466 l 1,19,20
 328 516 328 516 418 563 c 0,21,22
 501 607 501 607 523 599 c 0,23,24
 695 540 695 540 695 398 c 0,25,26
 695 284 695 284 588 165 c 128,-1,27
 481 46 481 46 335 -5 c 0,28,29
 332 -6 332 -6 252 23 c 128,-1,30
 172 52 172 52 173 57 c 0,31,32
 211 222 211 222 211 296 c 0,33,34
 211 371 211 371 174 417 c 0,35,36
 148 448 148 448 59 509 c 0,37,38
 54 512 54 512 54 519 c 0,39,40
 54 532 54 532 76 562 c 0,41,42
 94 586 94 586 113 611 c 1,18,-1
EndSplineSet
EndChar

StartChar: plus
Encoding: 43 43 14
Width: 575
GlyphClass: 1
Flags: W
LayerCount: 2
Fore
SplineSet
552 370 m 1,0,1
 505 291 505 291 411 291 c 0,2,3
 392 291 392 291 374 296 c 2,4,-1
 224 339 l 2,5,6
 201 346 201 346 180 346 c 0,7,8
 141 346 141 346 112 321 c 0,9,10
 107 316 107 316 82 286 c 1,11,-1
 39 313 l 1,12,13
 99 392 99 392 183 392 c 0,14,15
 208 392 208 392 234 385 c 2,16,-1
 385 343 l 2,17,18
 420 333 420 333 464 352 c 0,19,20
 496 365 496 365 515 394 c 1,21,-1
 552 370 l 1,0,1
552 219 m 1,22,23
 505 140 505 140 411 140 c 0,24,25
 392 140 392 140 374 145 c 2,26,-1
 224 188 l 2,27,28
 201 195 201 195 180 195 c 0,29,30
 141 195 141 195 112 170 c 0,31,32
 107 165 107 165 82 135 c 1,33,-1
 39 162 l 1,34,35
 99 241 99 241 183 241 c 0,36,37
 208 241 208 241 234 234 c 2,38,-1
 385 192 l 2,39,40
 420 182 420 182 464 201 c 0,41,42
 496 214 496 214 515 243 c 1,43,-1
 552 219 l 1,22,23
EndSplineSet
EndChar

StartChar: comma
Encoding: 44 44 15
Width: 659
GlyphClass: 1
Flags: W
LayerCount: 2
Fore
SplineSet
55 0 m 1,0,1
 154 -156 154 -156 317 -161 c 0,2,3
 496 -167 496 -167 605 0 c 1,4,5
 522 -64 522 -64 469 -88 c 0,6,7
 399 -120 399 -120 317 -118 c 0,8,9
 242 -116 242 -116 175 -82 c 0,10,11
 129 -59 129 -59 55 0 c 1,0,1
EndSplineSet
EndChar

StartChar: hyphen
Encoding: 45 45 16
AltUni2: 002010.ffffffff.0 002010.ffffffff.0
Width: 365
GlyphClass: 1
Flags: W
LayerCount: 2
Fore
SplineSet
43 454 m 1,0,-1
 78 537 l 1,1,-1
 329 537 l 1,2,-1
 289 454 l 1,3,-1
 43 454 l 1,0,-1
EndSplineSet
EndChar

StartChar: period
Encoding: 46 46 17
Width: 250
GlyphClass: 1
Flags: W
LayerCount: 2
Fore
SplineSet
183 43 m 0,0,1
 183 18 183 18 166 2 c 128,-1,2
 149 -14 149 -14 125 -14 c 256,3,4
 101 -14 101 -14 84.5 3 c 128,-1,5
 68 20 68 20 68 43 c 256,6,7
 68 66 68 66 84.5 83.5 c 128,-1,8
 101 101 101 101 125 101 c 256,9,10
 149 101 149 101 166 84 c 128,-1,11
 183 67 183 67 183 43 c 0,0,1
EndSplineSet
EndChar

StartChar: slash
Encoding: 47 47 18
Width: 1051
GlyphClass: 1
Flags: W
LayerCount: 2
Fore
SplineSet
546 580 m 2,0,1
 546 603 546 603 542 610 c 0,2,3
 536 621 536 621 516 621 c 0,4,5
 511 621 511 621 481 619 c 1,6,-1
 481 638 l 1,7,8
 512 645 512 645 568 661 c 2,9,-1
 631 682 l 1,10,-1
 631 263 l 1,11,-1
 757 374 l 2,12,13
 770 385 770 385 791 411 c 1,14,15
 795 434 795 434 741 434 c 1,16,-1
 741 448 l 1,17,-1
 945 448 l 1,18,-1
 945 434 l 1,19,20
 879 434 879 434 818 388 c 1,21,22
 759 335 759 335 700 282 c 1,23,-1
 845 98 l 2,24,25
 908 17 908 17 970 14 c 1,26,-1
 970 0 l 1,27,-1
 752 0 l 1,28,-1
 752 14 l 1,29,30
 789 14 789 14 789 32 c 0,31,32
 789 41 789 41 781 51 c 2,33,-1
 631 248 l 1,34,-1
 631 80 l 2,35,36
 631 46 631 46 646.5 31.5 c 128,-1,37
 662 17 662 17 706 14 c 1,38,-1
 706 0 l 1,39,-1
 471 0 l 1,40,-1
 471 14 l 1,41,42
 515 17 515 17 530.5 31.5 c 128,-1,43
 546 46 546 46 546 80 c 2,44,-1
 546 580 l 2,0,1
44 682 m 1,45,-1
 416 0 l 1,46,-1
 344 0 l 1,47,-1
 -28 682 l 1,48,-1
 44 682 l 1,45,-1
EndSplineSet
EndChar

StartChar: zero
Encoding: 48 48 19
Width: 530
GlyphClass: 1
Flags: W
LayerCount: 2
Fore
SplineSet
340 60 m 1,0,1
 259 -10 259 -10 194 -10 c 0,2,3
 104 -10 104 -10 60 63 c 0,4,5
 24 122 24 122 24 213 c 0,6,7
 24 313 24 313 87.5 385.5 c 128,-1,8
 151 458 151 458 250 458 c 0,9,10
 312 458 312 458 360 426 c 1,11,-1
 408 456 l 2,12,13
 413 459 413 459 417 459 c 0,14,15
 425 459 425 459 425 439 c 2,16,-1
 425 -137 l 2,17,18
 425 -171 425 -171 440.5 -185.5 c 128,-1,19
 456 -200 456 -200 498 -203 c 1,20,-1
 498 -217 l 1,21,-1
 257 -217 l 1,22,-1
 257 -203 l 1,23,24
 306 -200 306 -200 323 -185.5 c 128,-1,25
 340 -171 340 -171 340 -137 c 2,26,-1
 340 60 l 1,0,1
340 322 m 2,27,28
 340 367 340 367 335 382 c 0,29,30
 326 408 326 408 293 424 c 0,31,32
 272 434 272 434 245 434 c 0,33,34
 177 434 177 434 140 371 c 0,35,36
 110 318 110 318 110 245 c 0,37,38
 110 159 110 159 142 106 c 0,39,40
 176 50 176 50 234 50 c 0,41,42
 286 50 286 50 324 81 c 0,43,44
 338 92 338 92 340 107 c 2,45,46
 340 107 340 107 340 140 c 2,47,-1
 340 322 l 2,27,28
EndSplineSet
EndChar

StartChar: one
Encoding: 49 49 20
Width: 1242
GlyphClass: 1
Flags: W
LayerCount: 2
Fore
SplineSet
117 560 m 2,0,1
 117 611 117 611 104 619 c 0,2,3
 97 624 97 624 40 624 c 1,4,-1
 40 638 l 1,5,6
 125 654 125 654 202 682 c 1,7,-1
 202 80 l 2,8,9
 202 46 202 46 218 31.5 c 128,-1,10
 234 17 234 17 279 14 c 1,11,-1
 279 0 l 1,12,-1
 40 0 l 1,13,-1
 40 14 l 1,14,15
 85 17 85 17 101 31.5 c 128,-1,16
 117 46 117 46 117 80 c 2,17,-1
 117 560 l 2,0,1
371 276 m 1,18,19
 372 193 372 193 410 131 c 0,20,21
 455 57 455 57 533 57 c 0,22,23
 625 57 625 57 685 164 c 1,24,-1
 701 158 l 1,25,26
 676 87 676 87 622 40 c 0,27,28
 564 -10 564 -10 492 -10 c 0,29,30
 408 -10 408 -10 355 56 c 128,-1,31
 302 122 302 122 302 214 c 0,32,33
 302 322 302 322 358 390 c 128,-1,34
 414 458 414 458 506 458 c 0,35,36
 585 458 585 458 632.5 407 c 128,-1,37
 680 356 680 356 682 276 c 1,38,-1
 371 276 l 1,18,19
580 308 m 1,39,40
 577 357 577 357 556 387 c 0,41,42
 530 423 530 423 484 423 c 0,43,44
 390 423 390 423 374 308 c 1,45,-1
 580 308 l 1,39,40
1053 85 m 2,46,47
 1099 14 1099 14 1142 14 c 1,48,-1
 1142 0 l 1,49,-1
 941 0 l 1,50,-1
 941 14 l 1,51,52
 993 17 993 17 993 36 c 0,53,54
 993 42 993 42 988 49 c 2,55,-1
 884 197 l 1,56,-1
 812 84 l 2,57,58
 785 42 785 42 785 29 c 0,59,60
 785 14 785 14 825 14 c 1,61,-1
 825 0 l 1,62,-1
 680 0 l 1,63,-1
 680 14 l 1,64,65
 705 14 705 14 724 31 c 0,66,67
 737 43 737 43 760 76 c 2,68,-1
 867 231 l 1,69,-1
 781 362 l 2,70,71
 765 386 765 386 750 410 c 1,72,73
 729 432 729 432 688 434 c 1,74,-1
 688 448 l 1,75,-1
 895 448 l 1,76,-1
 895 434 l 1,77,78
 852 433 852 433 852 407 c 0,79,80
 852 394 852 394 912 301 c 1,81,82
 931 328 931 328 951 354 c 0,83,84
 979 395 979 395 979 410 c 0,85,86
 979 431 979 431 939 434 c 1,87,-1
 939 448 l 1,88,-1
 1097 448 l 1,89,-1
 1097 434 l 1,90,91
 1047 433 1047 433 1009 379 c 2,92,-1
 932 271 l 1,93,-1
 1053 85 l 2,46,47
EndSplineSet
EndChar

StartChar: two
Encoding: 50 50 21
Width: 1429
GlyphClass: 1
Flags: W
LayerCount: 2
Fore
SplineSet
102 631 m 256,0,1
 102 652 102 652 117 667 c 128,-1,2
 132 682 132 682 153 682 c 256,3,4
 174 682 174 682 189 667 c 128,-1,5
 204 652 204 652 204 631 c 256,6,7
 204 610 204 610 189 595 c 128,-1,8
 174 580 174 580 153 580 c 256,9,10
 132 580 132 580 117 595 c 128,-1,11
 102 610 102 610 102 631 c 256,0,1
118 322 m 2,12,13
 118 366 118 366 111 382 c 128,-1,14
 104 398 104 398 84 398 c 0,15,16
 71 398 71 398 42 391 c 1,17,-1
 42 405 l 1,18,-1
 203 458 l 1,19,-1
 203 80 l 2,20,21
 203 46 203 46 218.5 31.5 c 128,-1,22
 234 17 234 17 279 14 c 1,23,-1
 279 0 l 1,24,-1
 42 0 l 1,25,-1
 42 14 l 1,26,27
 87 17 87 17 102.5 31.5 c 128,-1,28
 118 46 118 46 118 80 c 2,29,-1
 118 322 l 2,12,13
389 325 m 2,30,31
 389 375 389 375 383 384 c 0,32,33
 372 400 372 400 326 397 c 1,34,-1
 326 411 l 1,35,-1
 474 458 l 1,36,-1
 474 378 l 1,37,38
 548 458 548 458 627 458 c 0,39,40
 744 458 744 458 744 297 c 2,41,-1
 744 80 l 2,42,43
 744 47 744 47 757.5 32 c 128,-1,44
 771 17 771 17 807 14 c 1,45,-1
 807 0 l 1,46,-1
 596 0 l 1,47,-1
 596 14 l 1,48,49
 632 17 632 17 645.5 32 c 128,-1,50
 659 47 659 47 659 80 c 2,51,-1
 659 295 l 2,52,53
 659 349 659 349 648 372 c 0,54,55
 631 405 631 405 583 405 c 0,56,57
 530 405 530 405 474 347 c 1,58,-1
 474 80 l 2,59,60
 474 47 474 47 487.5 32 c 128,-1,61
 501 17 501 17 537 14 c 1,62,-1
 537 0 l 1,63,-1
 326 0 l 1,64,-1
 326 14 l 1,65,66
 362 17 362 17 375.5 32 c 128,-1,67
 389 47 389 47 389 80 c 2,68,-1
 389 325 l 2,30,31
912 631 m 256,69,70
 912 652 912 652 927 667 c 128,-1,71
 942 682 942 682 963 682 c 256,72,73
 984 682 984 682 999 667 c 128,-1,74
 1014 652 1014 652 1014 631 c 256,75,76
 1014 610 1014 610 999 595 c 128,-1,77
 984 580 984 580 963 580 c 256,78,79
 942 580 942 580 927 595 c 128,-1,80
 912 610 912 610 912 631 c 256,69,70
928 322 m 2,81,82
 928 366 928 366 921 382 c 128,-1,83
 914 398 914 398 894 398 c 0,84,85
 881 398 881 398 852 391 c 1,86,-1
 852 405 l 1,87,-1
 1013 458 l 1,88,-1
 1013 80 l 2,89,90
 1013 46 1013 46 1028.5 31.5 c 128,-1,91
 1044 17 1044 17 1089 14 c 1,92,-1
 1089 0 l 1,93,-1
 852 0 l 1,94,-1
 852 14 l 1,95,96
 897 17 897 17 912.5 31.5 c 128,-1,97
 928 46 928 46 928 80 c 2,98,-1
 928 322 l 2,81,82
1231 158 m 2,99,100
 1231 54 1231 54 1275 54 c 0,101,102
 1287 54 1287 54 1304.5 61 c 128,-1,103
 1322 68 1322 68 1341 91 c 1,104,-1
 1354 80 l 1,105,106
 1294 2 1294 2 1225 2 c 0,107,108
 1177 2 1177 2 1161 35 c 0,109,110
 1146 64 1146 64 1146 141 c 2,111,-1
 1146 428 l 1,112,-1
 1116 428 l 2,113,114
 1086 428 1086 428 1098 427 c 1,115,116
 1088 428 1088 428 1088 435 c 0,117,118
 1088 438 1088 438 1090 443 c 0,119,120
 1125 467 1125 467 1164 511 c 0,121,122
 1197 552 1197 552 1231 592 c 1,123,-1
 1231 460 l 1,124,-1
 1330 460 l 1,125,-1
 1330 428 l 1,126,-1
 1231 428 l 1,127,-1
 1231 158 l 2,99,100
EndSplineSet
EndChar

StartChar: three
Encoding: 51 51 22
Width: 1291
GlyphClass: 1
Flags: W
LayerCount: 2
Fore
SplineSet
213 80 m 2,0,1
 213 45 213 45 231 31 c 128,-1,2
 249 17 249 17 305 14 c 1,3,-1
 305 0 l 1,4,-1
 45 0 l 1,5,-1
 45 14 l 1,6,7
 94 17 94 17 111 31.5 c 128,-1,8
 128 46 128 46 128 80 c 2,9,-1
 128 416 l 1,10,-1
 46 416 l 1,11,-1
 46 448 l 1,12,-1
 128 448 l 1,13,14
 128 504 128 504 136 544 c 0,15,16
 148 604 148 604 192.5 643 c 128,-1,17
 237 682 237 682 298 682 c 0,18,19
 381 682 381 682 408 624 c 1,20,21
 408 606 408 606 397 592.5 c 128,-1,22
 386 579 386 579 369 579 c 0,23,24
 339 579 339 579 324 607 c 0,25,26
 305 642 305 642 291 649 c 0,27,28
 270 660 270 660 251 650 c 1,29,30
 224 643 224 643 217 611 c 0,31,32
 213 595 213 595 213 554 c 2,33,-1
 213 448 l 1,34,-1
 334 448 l 1,35,-1
 334 416 l 1,36,-1
 213 416 l 1,37,-1
 213 80 l 2,0,1
488 631 m 256,38,39
 488 652 488 652 503 667 c 128,-1,40
 518 682 518 682 539 682 c 256,41,42
 560 682 560 682 575 667 c 128,-1,43
 590 652 590 652 590 631 c 256,44,45
 590 610 590 610 575 595 c 128,-1,46
 560 580 560 580 539 580 c 256,47,48
 518 580 518 580 503 595 c 128,-1,49
 488 610 488 610 488 631 c 256,38,39
504 322 m 2,50,51
 504 366 504 366 497 382 c 128,-1,52
 490 398 490 398 470 398 c 0,53,54
 457 398 457 398 428 391 c 1,55,-1
 428 405 l 1,56,-1
 589 458 l 1,57,-1
 589 80 l 2,58,59
 589 46 589 46 604.5 31.5 c 128,-1,60
 620 17 620 17 665 14 c 1,61,-1
 665 0 l 1,62,-1
 428 0 l 1,63,-1
 428 14 l 1,64,65
 473 17 473 17 488.5 31.5 c 128,-1,66
 504 46 504 46 504 80 c 2,67,-1
 504 322 l 2,50,51
778 325 m 2,68,69
 778 375 778 375 772 384 c 0,70,71
 761 400 761 400 715 397 c 1,72,-1
 715 411 l 1,73,-1
 863 458 l 1,74,-1
 863 378 l 1,75,76
 937 458 937 458 1016 458 c 0,77,78
 1133 458 1133 458 1133 297 c 2,79,-1
 1133 80 l 2,80,81
 1133 47 1133 47 1146.5 32 c 128,-1,82
 1160 17 1160 17 1196 14 c 1,83,-1
 1196 0 l 1,84,-1
 985 0 l 1,85,-1
 985 14 l 1,86,87
 1021 17 1021 17 1034.5 32 c 128,-1,88
 1048 47 1048 47 1048 80 c 2,89,-1
 1048 295 l 2,90,91
 1048 349 1048 349 1037 372 c 0,92,93
 1020 405 1020 405 972 405 c 0,94,95
 919 405 919 405 863 347 c 1,96,-1
 863 80 l 2,97,98
 863 47 863 47 876.5 32 c 128,-1,99
 890 17 890 17 926 14 c 1,100,-1
 926 0 l 1,101,-1
 715 0 l 1,102,-1
 715 14 l 1,103,104
 751 17 751 17 764.5 32 c 128,-1,105
 778 47 778 47 778 80 c 2,106,-1
 778 325 l 2,68,69
EndSplineSet
EndChar

StartChar: five
Encoding: 53 53 23
Width: 250
GlyphClass: 1
Flags: W
LayerCount: 2
Fore
SplineSet
198 581 m 0,0,1
 188 584 188 584 177 584 c 0,2,3
 142 584 142 584 113.5 557.5 c 128,-1,4
 85 531 85 531 76 491 c 0,5,6
 73 476 73 476 73 463 c 0,7,8
 73 384 73 384 160 381 c 0,9,10
 174 380 174 380 171 369 c 0,11,12
 169 358 169 358 155 360 c 0,13,14
 105 358 105 358 71.5 389 c 128,-1,15
 38 420 38 420 38 467 c 0,16,17
 38 530 38 530 91.5 580.5 c 128,-1,18
 145 631 145 631 209 630 c 0,19,20
 229 630 229 630 229 609 c 0,21,22
 229 581 229 581 198 581 c 0,0,1
EndSplineSet
EndChar

StartChar: six
Encoding: 54 54 24
Width: 250
GlyphClass: 1
Flags: W
LayerCount: 2
Fore
SplineSet
85 581 m 0,0,1
 96 584 96 584 107 584 c 0,2,3
 137 584 137 584 154 564.5 c 128,-1,4
 171 545 171 545 171 514 c 0,5,6
 171 503 171 503 169 491 c 0,7,8
 160 444 160 444 124.5 413.5 c 128,-1,9
 89 383 89 383 39 381 c 0,10,11
 25 380 25 380 22 369 c 0,12,13
 21 365 21 365 25 362 c 128,-1,14
 29 359 29 359 34 360 c 0,15,16
 99 357 99 357 153.5 407.5 c 128,-1,17
 208 458 208 458 208 522 c 0,18,19
 208 569 208 569 176.5 600 c 128,-1,20
 145 631 145 631 96 630 c 0,21,22
 85 630 85 630 74.5 620 c 128,-1,23
 64 610 64 610 64 599 c 0,24,25
 64 581 64 581 85 581 c 0,0,1
EndSplineSet
EndChar

StartChar: seven
Encoding: 55 55 25
Width: 685
GlyphClass: 1
Flags: W
LayerCount: 2
Fore
SplineSet
514 277 m 1,0,-1
 90 277 l 1,1,-1
 90 309 l 1,2,-1
 511 309 l 1,3,-1
 423 402 l 1,4,-1
 451 425 l 1,5,-1
 578 294 l 1,6,-1
 443 160 l 1,7,-1
 422 184 l 1,8,-1
 514 277 l 1,0,-1
EndSplineSet
EndChar

StartChar: eight
Encoding: 56 56 26
Width: 853
GlyphClass: 1
Flags: W
LayerCount: 2
Fore
SplineSet
73 369 m 0,0,1
 73 519 73 519 176.5 625 c 128,-1,2
 280 731 280 731 426 731 c 256,3,4
 572 731 572 731 676 625 c 128,-1,5
 780 519 780 519 780 369 c 0,6,7
 780 221 780 221 675.5 115 c 128,-1,8
 571 9 571 9 426 9 c 0,9,10
 280 9 280 9 176.5 115 c 128,-1,11
 73 221 73 221 73 369 c 0,0,1
757 369 m 0,12,13
 757 509 757 509 659.5 611.5 c 128,-1,14
 562 714 562 714 426 714 c 0,15,16
 291 714 291 714 193.5 611 c 128,-1,17
 96 508 96 508 96 369 c 256,18,19
 96 230 96 230 193.5 128 c 128,-1,20
 291 26 291 26 426 26 c 256,21,22
 561 26 561 26 659 128 c 128,-1,23
 757 230 757 230 757 369 c 0,12,13
496 475 m 1,24,25
 513 481 513 481 532 481 c 0,26,27
 584 481 584 481 626.5 441 c 128,-1,28
 669 401 669 401 669 348 c 0,29,30
 669 297 669 297 627.5 260.5 c 128,-1,31
 586 224 586 224 534 224 c 0,32,33
 514 224 514 224 496 230 c 1,34,-1
 496 274 l 1,35,36
 513 265 513 265 534 265 c 0,37,38
 570 265 570 265 600.5 289.5 c 128,-1,39
 631 314 631 314 631 348 c 0,40,41
 631 384 631 384 599 412 c 128,-1,42
 567 440 567 440 530 440 c 0,43,44
 511 440 511 440 496 432 c 1,45,-1
 496 475 l 1,24,25
358 437 m 1,46,-1
 224 437 l 1,47,-1
 224 557 l 1,48,-1
 262 557 l 1,49,-1
 262 480 l 1,50,51
 324 479 324 479 362 479 c 0,52,53
 375 479 375 479 389 479 c 0,54,55
 397 479 397 479 401 465 c 0,56,57
 404 455 404 455 404 445 c 0,58,59
 404 428 404 428 395 417 c 2,60,-1
 305 226 l 1,61,-1
 262 226 l 1,62,-1
 358 437 l 1,46,-1
EndSplineSet
EndChar

StartChar: nine
Encoding: 57 57 27
Width: 810
GlyphClass: 1
Flags: W
LayerCount: 2
Fore
SplineSet
541 282 m 1,0,-1
 374 282 l 1,1,2
 401 273 401 273 424 241 c 128,-1,3
 447 209 447 209 450 182 c 0,4,5
 454 139 454 139 419 90 c 0,6,7
 399 62 399 62 362 36 c 0,8,9
 309 -1 309 -1 250 -9 c 0,10,11
 212 -14 212 -14 197 -14 c 0,12,13
 151 -14 151 -14 118 7 c 0,14,15
 62 43 62 43 62 120 c 0,16,17
 62 133 62 133 64 145 c 0,18,19
 76 208 76 208 133 260 c 0,20,21
 168 292 168 292 242 318 c 0,22,23
 308 341 308 341 362 341 c 2,24,-1
 562 340 l 1,25,-1
 541 282 l 1,0,-1
332 282 m 1,26,27
 262 282 262 282 217 254 c 0,28,29
 163 220 163 220 146 158 c 0,30,31
 139 132 139 132 139 108 c 0,32,33
 139 59 139 59 167 34 c 0,34,35
 191 13 191 13 220 13 c 0,36,37
 235 13 235 13 254 17 c 0,38,39
 297 26 297 26 335 78 c 0,40,41
 382 141 382 141 376 199 c 0,42,43
 371 241 371 241 332 282 c 1,26,27
652 382 m 2,44,45
 647 371 647 371 636 371 c 0,46,47
 623 371 623 371 627 384 c 2,48,-1
 682 573 l 2,49,50
 685 582 685 582 699.5 588 c 128,-1,51
 714 594 714 594 723 593 c 0,52,53
 728 593 728 593 735.5 585 c 128,-1,54
 743 577 743 577 743 568 c 0,55,56
 743 565 743 565 742 562 c 2,57,-1
 652 382 l 2,44,45
EndSplineSet
EndChar

StartChar: colon
Encoding: 58 58 28
Width: 735
GlyphClass: 1
Flags: W
LayerCount: 2
Fore
SplineSet
475 336 m 1,0,-1
 209 40 l 1,1,2
 197 -27 197 -27 193 -44 c 0,3,4
 180 -91 180 -91 155 -122.5 c 128,-1,5
 130 -154 130 -154 99 -153 c 0,6,7
 76 -152 76 -152 76 -128 c 0,8,9
 76 -83 76 -83 179 40 c 1,10,11
 196 118 196 118 200 188 c 0,12,13
 203 249 203 249 192 267 c 128,-1,14
 181 285 181 285 157 285 c 0,15,16
 141 285 141 285 121.5 274.5 c 128,-1,17
 102 264 102 264 90 245 c 0,18,19
 82 231 82 231 74 216 c 1,20,-1
 62 216 l 1,21,22
 69 234 69 234 76 251 c 0,23,24
 87 276 87 276 107 301 c 0,25,26
 136 339 136 339 184 339 c 0,27,28
 196 339 196 339 206 336 c 0,29,30
 240 326 240 326 240 270 c 0,31,32
 240 258 240 258 239 245 c 0,33,34
 234 192 234 192 220 96 c 1,35,-1
 395 336 l 1,36,-1
 475 336 l 1,0,-1
577 382 m 2,37,38
 572 371 572 371 561 371 c 0,39,40
 548 371 548 371 552 384 c 2,41,-1
 607 573 l 2,42,43
 610 582 610 582 624.5 588 c 128,-1,44
 639 594 639 594 648 593 c 0,45,46
 653 593 653 593 660.5 585 c 128,-1,47
 668 577 668 577 668 568 c 0,48,49
 668 565 668 565 667 562 c 2,50,-1
 577 382 l 2,37,38
EndSplineSet
EndChar

StartChar: semicolon
Encoding: 59 59 29
Width: 685
GlyphClass: 1
Flags: W
LayerCount: 2
Fore
SplineSet
256 174 m 1,0,-1
 235 150 l 1,1,-1
 95 294 l 1,2,-1
 232 435 l 1,3,-1
 260 412 l 1,4,-1
 162 309 l 1,5,-1
 583 309 l 1,6,-1
 583 277 l 1,7,-1
 159 277 l 1,8,-1
 256 174 l 1,0,-1
EndSplineSet
EndChar

StartChar: less
Encoding: 60 60 30
Width: 655
GlyphClass: 1
Flags: W
LayerCount: 2
Fore
SplineSet
68 250 m 1,0,-1
 582 250 l 1,1,-1
 582 211 l 1,2,-1
 68 211 l 1,3,-1
 68 250 l 1,0,-1
EndSplineSet
EndChar

StartChar: equal
Encoding: 61 61 31
Width: 250
GlyphClass: 1
Flags: W
LayerCount: 2
Fore
SplineSet
180 581 m 0,0,1
 169 584 169 584 159 584 c 0,2,3
 124 584 124 584 101 557.5 c 128,-1,4
 78 531 78 531 77 491 c 0,5,6
 76 444 76 444 105 413.5 c 128,-1,7
 134 383 134 383 184 381 c 0,8,9
 198 380 198 380 198 369 c 256,10,11
 198 358 198 358 184 360 c 0,12,13
 128 358 128 358 85.5 397 c 128,-1,14
 43 436 43 436 42 492 c 0,15,16
 41 549 41 549 82 590 c 128,-1,17
 123 631 123 631 180 630 c 0,18,19
 191 630 191 630 199 620 c 128,-1,20
 207 610 207 610 205 599 c 0,21,22
 201 581 201 581 180 581 c 0,0,1
EndSplineSet
EndChar

StartChar: greater
Encoding: 62 62 32
Width: 250
GlyphClass: 1
Flags: W
LayerCount: 2
Fore
SplineSet
67 581 m 0,0,1
 78 584 78 584 88 584 c 0,2,3
 123 584 123 584 146 557.5 c 128,-1,4
 169 531 169 531 170 491 c 0,5,6
 171 444 171 444 142 413.5 c 128,-1,7
 113 383 113 383 63 381 c 0,8,9
 49 380 49 380 49 369 c 256,10,11
 49 358 49 358 63 360 c 0,12,13
 119 358 119 358 161.5 397 c 128,-1,14
 204 436 204 436 205 492 c 0,15,16
 206 549 206 549 165 590 c 128,-1,17
 124 631 124 631 67 630 c 0,18,19
 56 630 56 630 48 620 c 128,-1,20
 40 610 40 610 42 599 c 0,21,22
 46 581 46 581 67 581 c 0,0,1
EndSplineSet
EndChar

StartChar: question
Encoding: 63 63 33
Width: 840
GlyphClass: 1
Flags: W
LayerCount: 2
Fore
SplineSet
668 417 m 2,0,-1
 668 515 l 1,1,-1
 606 515 l 2,2,3
 574 515 574 515 574 558 c 0,4,5
 574 572 574 572 583.5 582.5 c 128,-1,6
 593 593 593 593 606 593 c 2,7,-1
 670 593 l 2,8,9
 690 593 690 593 720 578 c 0,10,11
 727 575 727 575 735.5 554.5 c 128,-1,12
 744 534 744 534 744 515 c 2,13,-1
 744 393 l 2,14,15
 744 366 744 366 729 342 c 0,16,17
 721 328 721 328 693 299 c 0,18,19
 651 254 651 254 601 240 c 1,20,-1
 749 29 l 1,21,22
 747 19 747 19 746 8 c 1,23,24
 741 -1 741 -1 716 -1 c 0,25,26
 666 -1 666 -1 657 29 c 1,27,-1
 439 343 l 1,28,29
 410 328 410 328 395 309 c 0,30,31
 372 280 372 280 367 264 c 0,32,33
 364 253 364 253 364 222 c 2,34,-1
 364 67 l 1,35,-1
 453 67 l 2,36,37
 476 67 476 67 476 29 c 0,38,39
 476 -1 476 -1 453 -1 c 2,40,-1
 334 -1 l 2,41,42
 317 -1 317 -1 302 16 c 1,43,44
 291 36 291 36 291 55 c 2,45,-1
 291 222 l 2,46,47
 291 296 291 296 327 343 c 0,48,49
 359 385 359 385 395 405 c 1,50,-1
 291 566 l 1,51,52
 294 588 294 588 327 588 c 0,53,54
 359 588 359 588 374 578 c 1,55,-1
 562 303 l 1,56,57
 614 306 614 306 651 355 c 0,58,59
 668 378 668 378 668 417 c 2,0,-1
121 152 m 2,60,61
 121 186 121 186 104 186 c 0,62,63
 95 186 95 186 63 173 c 1,64,-1
 63 181 l 1,65,-1
 169 235 l 1,66,-1
 169 -103 l 2,67,68
 169 -126 169 -126 186 -134 c 0,69,70
 196 -139 196 -139 224 -141 c 1,71,-1
 224 -149 l 1,72,-1
 67 -149 l 1,73,-1
 67 -141 l 1,74,75
 106 -138 106 -138 116 -125 c 0,76,77
 121 -118 121 -118 121 -103 c 2,78,-1
 121 152 l 2,60,61
EndSplineSet
EndChar

StartChar: at
Encoding: 64 64 34
Width: 705
GlyphClass: 1
Flags: W
LayerCount: 2
Fore
SplineSet
278 399 m 0,0,1
 278 502 278 502 215 502 c 256,2,3
 152 502 152 502 52 414 c 1,4,-1
 52 414 l 1,5,6
 53 415 53 415 60 422 c 1,7,8
 44 424 44 424 44 441 c 0,9,10
 44 483 44 483 102 543 c 0,11,12
 165 608 165 608 230 608 c 0,13,14
 296 608 296 608 339 548 c 0,15,16
 378 494 378 494 378 425 c 0,17,18
 378 285 378 285 237 139 c 1,19,20
 258 113 258 113 310 61 c 1,21,-1
 442 124 l 1,22,-1
 440 453 l 2,23,24
 440 504 440 504 519 558 c 0,25,26
 588 605 588 605 621 605 c 0,27,28
 625 605 625 605 625 603 c 256,29,30
 625 601 625 601 624 599 c 0,31,32
 602 571 602 571 579.5 542.5 c 128,-1,33
 557 514 557 514 557 481 c 2,34,-1
 557 164 l 1,35,36
 567 149 567 149 576 135 c 0,37,38
 597 104 597 104 617 94 c 0,39,40
 620 93 620 93 574.5 48 c 128,-1,41
 529 3 529 3 526 3 c 2,42,-1
 454 108 l 1,43,-1
 228 3 l 1,44,-1
 120 93 l 1,45,46
 157 87 157 87 216 195 c 0,47,48
 278 308 278 308 278 399 c 0,0,1
EndSplineSet
EndChar

StartChar: A
Encoding: 65 65 35
Width: 570
GlyphClass: 1
Flags: W
LayerCount: 2
Fore
SplineSet
102 560 m 2,0,1
 102 603 102 603 92.5 612 c 128,-1,2
 83 621 83 621 39 619 c 1,3,-1
 39 638 l 1,4,5
 69 645 69 645 124 661 c 2,6,-1
 187 682 l 1,7,-1
 187 378 l 1,8,9
 249 458 249 458 331 458 c 0,10,11
 403 458 403 458 432 415 c 0,12,13
 457 377 457 377 457 289 c 2,14,-1
 457 80 l 2,15,16
 457 47 457 47 470.5 32 c 128,-1,17
 484 17 484 17 520 14 c 1,18,-1
 520 0 l 1,19,-1
 309 0 l 1,20,-1
 309 14 l 1,21,22
 345 17 345 17 358.5 32 c 128,-1,23
 372 47 372 47 372 80 c 2,24,-1
 372 288 l 2,25,26
 372 344 372 344 361 368 c 0,27,28
 344 405 344 405 296 405 c 0,29,30
 259 405 259 405 231 387 c 0,31,32
 217 377 217 377 187 345 c 1,33,-1
 187 80 l 2,34,35
 187 47 187 47 200.5 32 c 128,-1,36
 214 17 214 17 250 14 c 1,37,-1
 250 0 l 1,38,-1
 39 0 l 1,39,-1
 39 14 l 1,40,41
 75 17 75 17 88.5 32 c 128,-1,42
 102 47 102 47 102 80 c 2,43,-1
 102 560 l 2,0,1
327 -107 m 256,44,45
 327 -127 327 -127 312 -142 c 128,-1,46
 297 -157 297 -157 277 -157 c 0,47,48
 258 -157 258 -157 243 -142 c 128,-1,49
 228 -127 228 -127 228 -107 c 0,50,51
 228 -88 228 -88 243 -72.5 c 128,-1,52
 258 -57 258 -57 277 -57 c 0,53,54
 297 -57 297 -57 312 -72 c 128,-1,55
 327 -87 327 -87 327 -107 c 256,44,45
EndSplineSet
EndChar

StartChar: B
Encoding: 66 66 36
Width: 320
GlyphClass: 1
Flags: W
LayerCount: 2
Fore
SplineSet
176 146 m 2,0,1
 176 42 176 42 220 42 c 0,2,3
 232 42 232 42 249.5 49 c 128,-1,4
 267 56 267 56 286 79 c 1,5,-1
 299 68 l 1,6,7
 239 -10 239 -10 170 -10 c 0,8,9
 122 -10 122 -10 106 23 c 0,10,11
 91 52 91 52 91 129 c 2,12,-1
 91 416 l 1,13,-1
 61 416 l 2,14,15
 31 416 31 416 43 415 c 1,16,17
 33 416 33 416 33 423 c 0,18,19
 33 426 33 426 35 431 c 0,20,21
 70 455 70 455 109 499 c 0,22,23
 142 540 142 540 176 580 c 1,24,-1
 176 448 l 1,25,-1
 275 448 l 1,26,-1
 275 416 l 1,27,-1
 176 416 l 1,28,-1
 176 146 l 2,0,1
236 -107 m 256,29,30
 236 -127 236 -127 221 -142 c 128,-1,31
 206 -157 206 -157 186 -157 c 0,32,33
 167 -157 167 -157 152 -142 c 128,-1,34
 137 -127 137 -127 137 -107 c 0,35,36
 137 -88 137 -88 152 -72.5 c 128,-1,37
 167 -57 167 -57 186 -57 c 0,38,39
 206 -57 206 -57 221 -72 c 128,-1,40
 236 -87 236 -87 236 -107 c 256,29,30
EndSplineSet
EndChar

StartChar: C
Encoding: 67 67 37
Width: 389
GlyphClass: 1
Flags: W
LayerCount: 2
Fore
SplineSet
51 153 m 1,0,-1
 68 153 l 1,1,2
 91 13 91 13 198 13 c 0,3,4
 232 13 232 13 255 32.5 c 128,-1,5
 278 52 278 52 278 85 c 0,6,7
 278 128 278 128 219 165 c 0,8,9
 165 198 165 198 110 231 c 1,10,11
 51 275 51 275 51 335 c 0,12,13
 51 391 51 391 93 426 c 0,14,15
 133 458 133 458 191 458 c 0,16,17
 213 458 213 458 265 440 c 0,18,19
 277 436 277 436 285 436 c 0,20,21
 297 436 297 436 302 449 c 1,22,-1
 315 449 l 1,23,-1
 315 313 l 1,24,-1
 299 313 l 1,25,26
 283 373 283 373 262 400 c 0,27,28
 235 435 235 435 189 435 c 0,29,30
 159 435 159 435 136 417 c 128,-1,31
 113 399 113 399 113 370 c 0,32,33
 113 329 113 329 174 290 c 0,34,35
 230 256 230 256 287 222 c 1,36,37
 348 177 348 177 348 124 c 0,38,39
 348 62 348 62 305 26 c 128,-1,40
 262 -10 262 -10 199 -10 c 0,41,42
 178 -10 178 -10 127 5 c 0,43,44
 101 13 101 13 87 13 c 0,45,46
 69 13 69 13 65 -2 c 1,47,-1
 51 -2 l 1,48,-1
 51 153 l 1,0,-1
246 -107 m 256,49,50
 246 -127 246 -127 231 -142 c 128,-1,51
 216 -157 216 -157 196 -157 c 0,52,53
 177 -157 177 -157 162 -142 c 128,-1,54
 147 -127 147 -127 147 -107 c 0,55,56
 147 -88 147 -88 162 -72.5 c 128,-1,57
 177 -57 177 -57 196 -57 c 0,58,59
 216 -57 216 -57 231 -72 c 128,-1,60
 246 -87 246 -87 246 -107 c 256,49,50
EndSplineSet
EndChar

StartChar: D
Encoding: 68 68 38
Width: 770
GlyphClass: 1
Flags: W
LayerCount: 2
Fore
SplineSet
538 359 m 1,0,-1
 538 582 l 2,1,2
 538 643 538 643 450 643 c 1,3,-1
 450 662 l 1,4,-1
 728 662 l 1,5,-1
 728 643 l 1,6,7
 640 643 640 643 640 582 c 2,8,-1
 640 80 l 2,9,10
 640 19 640 19 728 19 c 1,11,-1
 728 0 l 1,12,-1
 450 0 l 1,13,-1
 450 19 l 1,14,15
 538 19 538 19 538 80 c 2,16,-1
 538 318 l 1,17,-1
 235 318 l 1,18,-1
 235 80 l 2,19,20
 235 19 235 19 323 19 c 1,21,-1
 323 0 l 1,22,-1
 45 0 l 1,23,-1
 45 19 l 1,24,25
 133 19 133 19 133 80 c 2,26,-1
 133 582 l 2,27,28
 133 643 133 643 45 643 c 1,29,-1
 45 662 l 1,30,-1
 323 662 l 1,31,-1
 323 643 l 1,32,33
 235 643 235 643 235 582 c 2,34,-1
 235 359 l 1,35,-1
 538 359 l 1,0,-1
439 -107 m 256,36,37
 439 -127 439 -127 424 -142 c 128,-1,38
 409 -157 409 -157 389 -157 c 0,39,40
 370 -157 370 -157 355 -142 c 128,-1,41
 340 -127 340 -127 340 -107 c 0,42,43
 340 -88 340 -88 355 -72.5 c 128,-1,44
 370 -57 370 -57 389 -57 c 0,45,46
 409 -57 409 -57 424 -72 c 128,-1,47
 439 -87 439 -87 439 -107 c 256,36,37
EndSplineSet
EndChar

StartChar: E
Encoding: 69 69 39
Width: 645
GlyphClass: 1
Flags: W
LayerCount: 2
Fore
SplineSet
366 80 m 2,0,1
 366 19 366 19 454 19 c 1,2,-1
 454 0 l 1,3,-1
 176 0 l 1,4,-1
 176 19 l 1,5,6
 264 19 264 19 264 80 c 2,7,-1
 264 620 l 1,8,9
 183 620 183 620 159 617 c 0,10,11
 105 610 105 610 86 584.5 c 128,-1,12
 67 559 67 559 52 492 c 1,13,-1
 28 492 l 1,14,-1
 34 662 l 1,15,-1
 598 662 l 1,16,-1
 604 492 l 1,17,-1
 580 492 l 1,18,19
 565 580 565 580 527 605 c 0,20,21
 504 620 504 620 438 620 c 2,22,-1
 366 620 l 1,23,-1
 366 80 l 2,0,1
364 -107 m 256,24,25
 364 -127 364 -127 349 -142 c 128,-1,26
 334 -157 334 -157 314 -157 c 0,27,28
 295 -157 295 -157 280 -142 c 128,-1,29
 265 -127 265 -127 265 -107 c 0,30,31
 265 -88 265 -88 280 -72.5 c 128,-1,32
 295 -57 295 -57 314 -57 c 0,33,34
 334 -57 334 -57 349 -72 c 128,-1,35
 364 -87 364 -87 364 -107 c 256,24,25
EndSplineSet
EndChar

StartChar: F
Encoding: 70 70 40
Width: 556
GlyphClass: 1
Flags: W
LayerCount: 2
Fore
SplineSet
42 201 m 1,0,-1
 65 201 l 1,1,2
 90 125 90 125 140 78 c 0,3,4
 197 24 197 24 272 24 c 0,5,6
 323 24 323 24 356.5 56.5 c 128,-1,7
 390 89 390 89 390 136 c 0,8,9
 390 154 390 154 385 172 c 0,10,11
 369 228 369 228 285 279 c 0,12,13
 148 364 148 364 143 368 c 0,14,15
 71 427 71 427 71 509 c 0,16,17
 71 582 71 582 122 629 c 128,-1,18
 173 676 173 676 248 676 c 0,19,20
 289 676 289 676 336 659.5 c 128,-1,21
 383 643 383 643 393 643 c 0,22,23
 415 643 415 643 426 676 c 1,24,-1
 447 676 l 1,25,-1
 469 463 l 1,26,-1
 444 463 l 1,27,28
 426 537 426 537 379 584 c 0,29,30
 329 635 329 635 262 635 c 0,31,32
 215 635 215 635 186 610 c 128,-1,33
 157 585 157 585 157 539 c 0,34,35
 157 478 157 478 263 414 c 0,36,37
 399 332 399 332 428 306 c 0,38,39
 491 249 491 249 491 169 c 0,40,41
 491 96 491 96 437 44 c 0,42,43
 377 -14 377 -14 280 -14 c 0,44,45
 241 -14 241 -14 188 2 c 128,-1,46
 135 18 135 18 124 18 c 0,47,48
 98 18 98 18 94 -14 c 1,49,-1
 72 -14 l 1,50,-1
 42 201 l 1,0,-1
324 -107 m 256,51,52
 324 -127 324 -127 309 -142 c 128,-1,53
 294 -157 294 -157 274 -157 c 0,54,55
 255 -157 255 -157 240 -142 c 128,-1,56
 225 -127 225 -127 225 -107 c 0,57,58
 225 -88 225 -88 240 -72.5 c 128,-1,59
 255 -57 255 -57 274 -57 c 0,60,61
 294 -57 294 -57 309 -72 c 128,-1,62
 324 -87 324 -87 324 -107 c 256,51,52
EndSplineSet
EndChar

StartChar: G
Encoding: 71 71 41
Width: 335
GlyphClass: 1
Flags: W
LayerCount: 2
Fore
SplineSet
241 507 m 1,0,-1
 201 507 l 1,1,-1
 57 598 l 2,2,3
 14 625 14 625 14 641 c 0,4,5
 14 678 14 678 45 678 c 0,6,7
 80 678 80 678 103 646 c 1,8,-1
 241 507 l 1,0,-1
123 322 m 2,9,10
 123 366 123 366 116 382 c 128,-1,11
 109 398 109 398 89 398 c 0,12,13
 76 398 76 398 47 391 c 1,14,-1
 47 405 l 1,15,-1
 208 458 l 1,16,-1
 208 80 l 2,17,18
 208 46 208 46 223.5 31.5 c 128,-1,19
 239 17 239 17 284 14 c 1,20,-1
 284 0 l 1,21,-1
 47 0 l 1,22,-1
 47 14 l 1,23,24
 92 17 92 17 107.5 31.5 c 128,-1,25
 123 46 123 46 123 80 c 2,26,-1
 123 322 l 2,9,10
EndSplineSet
EndChar

StartChar: H
Encoding: 72 72 42
Width: 320
GlyphClass: 1
Flags: W
LayerCount: 2
Fore
SplineSet
33 507 m 1,0,-1
 -1 507 l 1,1,-1
 124 674 l 1,2,-1
 186 674 l 1,3,-1
 311 507 l 1,4,-1
 276 507 l 1,5,-1
 155 610 l 1,6,-1
 33 507 l 1,0,-1
113 322 m 2,7,8
 113 366 113 366 106 382 c 128,-1,9
 99 398 99 398 79 398 c 0,10,11
 66 398 66 398 37 391 c 1,12,-1
 37 405 l 1,13,-1
 198 458 l 1,14,-1
 198 80 l 2,15,16
 198 46 198 46 213.5 31.5 c 128,-1,17
 229 17 229 17 274 14 c 1,18,-1
 274 0 l 1,19,-1
 37 0 l 1,20,-1
 37 14 l 1,21,22
 82 17 82 17 97.5 31.5 c 128,-1,23
 113 46 113 46 113 80 c 2,24,-1
 113 322 l 2,7,8
EndSplineSet
EndChar

StartChar: I
Encoding: 73 73 43
Width: 350
GlyphClass: 1
Flags: W
LayerCount: 2
Fore
SplineSet
21 573 m 0,0,1
 21 592 21 592 36 607.5 c 128,-1,2
 51 623 51 623 70 623 c 0,3,4
 90 623 90 623 105 608 c 128,-1,5
 120 593 120 593 120 573 c 256,6,7
 120 553 120 553 105 538 c 128,-1,8
 90 523 90 523 70 523 c 0,9,10
 51 523 51 523 36 538 c 128,-1,11
 21 553 21 553 21 573 c 0,0,1
319 573 m 256,12,13
 319 553 319 553 304 538 c 128,-1,14
 289 523 289 523 269 523 c 0,15,16
 250 523 250 523 235 538 c 128,-1,17
 220 553 220 553 220 573 c 0,18,19
 220 592 220 592 235 607.5 c 128,-1,20
 250 623 250 623 269 623 c 0,21,22
 289 623 289 623 304 608 c 128,-1,23
 319 593 319 593 319 573 c 256,12,13
128 322 m 2,24,25
 128 366 128 366 121 382 c 128,-1,26
 114 398 114 398 94 398 c 0,27,28
 81 398 81 398 52 391 c 1,29,-1
 52 405 l 1,30,-1
 213 458 l 1,31,-1
 213 80 l 2,32,33
 213 46 213 46 228.5 31.5 c 128,-1,34
 244 17 244 17 289 14 c 1,35,-1
 289 0 l 1,36,-1
 52 0 l 1,37,-1
 52 14 l 1,38,39
 97 17 97 17 112.5 31.5 c 128,-1,40
 128 46 128 46 128 80 c 2,41,-1
 128 322 l 2,24,25
EndSplineSet
EndChar

StartChar: J
Encoding: 74 74 44
Width: 650
GlyphClass: 1
Flags: W
LayerCount: 2
Fore
SplineSet
542 182 m 1,0,-1
 542 142 l 1,1,-1
 116 142 l 1,2,-1
 116 182 l 1,3,-1
 542 182 l 1,0,-1
542 305 m 1,4,-1
 542 267 l 1,5,-1
 116 267 l 1,6,-1
 116 305 l 1,7,-1
 542 305 l 1,4,-1
542 434 m 1,8,-1
 542 394 l 1,9,-1
 116 394 l 1,10,-1
 116 434 l 1,11,-1
 542 434 l 1,8,-1
EndSplineSet
EndChar

StartChar: K
Encoding: 75 75 45
Width: 705
GlyphClass: 1
Flags: W
LayerCount: 2
Fore
SplineSet
206 559 m 1,0,-1
 569 123 l 1,1,-1
 522 123 l 1,2,-1
 160 559 l 1,3,-1
 206 559 l 1,0,-1
568 559 m 1,4,-1
 206 123 l 1,5,-1
 159 123 l 1,6,-1
 522 559 l 1,7,-1
 568 559 l 1,4,-1
407 603 m 0,8,9
 407 587 407 587 395.5 575 c 128,-1,10
 384 563 384 563 367 563 c 0,11,12
 351 563 351 563 339.5 575 c 128,-1,13
 328 587 328 587 328 603 c 0,14,15
 328 618 328 618 340 630.5 c 128,-1,16
 352 643 352 643 367 643 c 0,17,18
 384 643 384 643 395.5 631.5 c 128,-1,19
 407 620 407 620 407 603 c 0,8,9
622 358 m 0,20,21
 622 342 622 342 610.5 330 c 128,-1,22
 599 318 599 318 582 318 c 0,23,24
 566 318 566 318 554.5 330 c 128,-1,25
 543 342 543 342 543 358 c 0,26,27
 543 373 543 373 555 385.5 c 128,-1,28
 567 398 567 398 582 398 c 0,29,30
 599 398 599 398 610.5 386.5 c 128,-1,31
 622 375 622 375 622 358 c 0,20,21
397 118 m 0,32,33
 397 102 397 102 385.5 90 c 128,-1,34
 374 78 374 78 357 78 c 0,35,36
 341 78 341 78 329.5 90 c 128,-1,37
 318 102 318 102 318 118 c 0,38,39
 318 133 318 133 330 145.5 c 128,-1,40
 342 158 342 158 357 158 c 0,41,42
 374 158 374 158 385.5 146.5 c 128,-1,43
 397 135 397 135 397 118 c 0,32,33
182 353 m 0,44,45
 182 337 182 337 170.5 325 c 128,-1,46
 159 313 159 313 142 313 c 0,47,48
 126 313 126 313 114.5 325 c 128,-1,49
 103 337 103 337 103 353 c 0,50,51
 103 368 103 368 115 380.5 c 128,-1,52
 127 393 127 393 142 393 c 0,53,54
 159 393 159 393 170.5 381.5 c 128,-1,55
 182 370 182 370 182 353 c 0,44,45
EndSplineSet
EndChar

StartChar: L
Encoding: 76 76 46
Width: 545
GlyphClass: 1
Flags: W
LayerCount: 2
Fore
SplineSet
87 560 m 2,0,1
 87 603 87 603 77.5 612 c 128,-1,2
 68 621 68 621 24 619 c 1,3,-1
 24 638 l 1,4,5
 54 645 54 645 109 661 c 2,6,-1
 172 682 l 1,7,-1
 172 378 l 1,8,9
 234 458 234 458 316 458 c 0,10,11
 388 458 388 458 417 415 c 0,12,13
 442 377 442 377 442 289 c 2,14,-1
 442 80 l 2,15,16
 442 47 442 47 455.5 32 c 128,-1,17
 469 17 469 17 505 14 c 1,18,-1
 505 0 l 1,19,-1
 294 0 l 1,20,-1
 294 14 l 1,21,22
 330 17 330 17 343.5 32 c 128,-1,23
 357 47 357 47 357 80 c 2,24,-1
 357 288 l 2,25,26
 357 344 357 344 346 368 c 0,27,28
 329 405 329 405 281 405 c 0,29,30
 244 405 244 405 216 387 c 0,31,32
 202 377 202 377 172 345 c 1,33,-1
 172 80 l 2,34,35
 172 47 172 47 185.5 32 c 128,-1,36
 199 17 199 17 235 14 c 1,37,-1
 235 0 l 1,38,-1
 24 0 l 1,39,-1
 24 14 l 1,40,41
 60 17 60 17 73.5 32 c 128,-1,42
 87 47 87 47 87 80 c 2,43,-1
 87 560 l 2,0,1
96 -47 m 1,44,45
 158 -144 158 -144 259 -147 c 0,46,47
 372 -151 372 -151 439 -47 c 1,48,49
 387 -87 387 -87 355 -102 c 0,50,51
 311 -121 311 -121 259 -120 c 0,52,53
 186 -118 186 -118 96 -47 c 1,44,45
EndSplineSet
EndChar

StartChar: M
Encoding: 77 77 47
Width: 485
GlyphClass: 1
Flags: W
LayerCount: 2
Fore
SplineSet
95 542 m 1,0,-1
 95 591 l 1,1,-1
 395 591 l 1,2,-1
 395 542 l 1,3,-1
 95 542 l 1,0,-1
91 276 m 1,4,5
 92 193 92 193 130 131 c 0,6,7
 175 57 175 57 253 57 c 0,8,9
 345 57 345 57 405 164 c 1,10,-1
 421 158 l 1,11,12
 396 87 396 87 342 40 c 0,13,14
 284 -10 284 -10 212 -10 c 0,15,16
 128 -10 128 -10 75 56 c 128,-1,17
 22 122 22 122 22 214 c 0,18,19
 22 322 22 322 78 390 c 128,-1,20
 134 458 134 458 226 458 c 0,21,22
 305 458 305 458 352.5 407 c 128,-1,23
 400 356 400 356 402 276 c 1,24,-1
 91 276 l 1,4,5
300 308 m 1,25,26
 297 357 297 357 276 387 c 0,27,28
 250 423 250 423 204 423 c 0,29,30
 110 423 110 423 94 308 c 1,31,-1
 300 308 l 1,25,26
EndSplineSet
EndChar

StartChar: N
Encoding: 78 78 48
Width: 500
GlyphClass: 1
Flags: W
LayerCount: 2
Fore
SplineSet
102 573 m 0,0,1
 102 592 102 592 117 607.5 c 128,-1,2
 132 623 132 623 151 623 c 0,3,4
 171 623 171 623 186 608 c 128,-1,5
 201 593 201 593 201 573 c 256,6,7
 201 553 201 553 186 538 c 128,-1,8
 171 523 171 523 151 523 c 0,9,10
 132 523 132 523 117 538 c 128,-1,11
 102 553 102 553 102 573 c 0,0,1
400 573 m 256,12,13
 400 553 400 553 385 538 c 128,-1,14
 370 523 370 523 350 523 c 0,15,16
 331 523 331 523 316 538 c 128,-1,17
 301 553 301 553 301 573 c 0,18,19
 301 592 301 592 316 607.5 c 128,-1,20
 331 623 331 623 350 623 c 0,21,22
 370 623 370 623 385 608 c 128,-1,23
 400 593 400 593 400 573 c 256,12,13
470 238 m 0,24,25
 470 136 470 136 410 65 c 0,26,27
 347 -10 347 -10 246 -10 c 0,28,29
 152 -10 152 -10 90 59 c 0,30,31
 30 125 30 125 30 218 c 0,32,33
 30 321 30 321 86 388 c 0,34,35
 146 458 146 458 246 458 c 0,36,37
 345 458 345 458 407.5 397 c 128,-1,38
 470 336 470 336 470 238 c 0,24,25
378 191 m 0,39,40
 378 279 378 279 349 343 c 0,41,42
 310 428 310 428 234 428 c 0,43,44
 181 428 181 428 151.5 384 c 128,-1,45
 122 340 122 340 122 272 c 0,46,47
 122 161 122 161 157 93 c 0,48,49
 195 20 195 20 264 20 c 0,50,51
 319 20 319 20 350 73 c 0,52,53
 378 120 378 120 378 191 c 0,39,40
EndSplineSet
EndChar

StartChar: O
Encoding: 79 79 49
Width: 550
GlyphClass: 1
Flags: W
LayerCount: 2
Fore
SplineSet
442 119 m 2,0,1
 442 77 442 77 452.5 63 c 128,-1,2
 463 49 463 49 504 50 c 1,3,-1
 504 36 l 1,4,5
 465 24 465 24 363 -10 c 1,6,-1
 363 76 l 1,7,-1
 342 53 l 2,8,9
 284 -10 284 -10 214 -10 c 0,10,11
 97 -10 97 -10 97 132 c 2,12,-1
 97 361 l 2,13,14
 97 404 97 404 89 417 c 0,15,16
 77 434 77 434 34 434 c 1,17,-1
 34 448 l 1,18,-1
 182 448 l 1,19,-1
 182 136 l 2,20,21
 182 48 182 48 257 48 c 0,22,23
 296 48 296 48 335 80 c 0,24,25
 354 95 354 95 357 110 c 0,26,27
 357 113 357 113 357 150 c 2,28,-1
 357 359 l 2,29,30
 357 409 357 409 344 421 c 128,-1,31
 331 433 331 433 284 434 c 1,32,-1
 284 448 l 1,33,-1
 442 448 l 1,34,-1
 442 119 l 2,0,1
95 542 m 1,35,-1
 95 591 l 1,36,-1
 395 591 l 1,37,-1
 395 542 l 1,38,-1
 95 542 l 1,35,-1
EndSplineSet
EndChar

StartChar: P
Encoding: 80 80 50
Width: 320
GlyphClass: 1
Flags: W
LayerCount: 2
Fore
SplineSet
118 322 m 2,0,1
 118 366 118 366 111 382 c 128,-1,2
 104 398 104 398 84 398 c 0,3,4
 71 398 71 398 42 391 c 1,5,-1
 42 405 l 1,6,-1
 203 458 l 1,7,-1
 203 80 l 2,8,9
 203 46 203 46 218.5 31.5 c 128,-1,10
 234 17 234 17 279 14 c 1,11,-1
 279 0 l 1,12,-1
 42 0 l 1,13,-1
 42 14 l 1,14,15
 87 17 87 17 102.5 31.5 c 128,-1,16
 118 46 118 46 118 80 c 2,17,-1
 118 322 l 2,0,1
15 542 m 1,18,-1
 15 591 l 1,19,-1
 315 591 l 1,20,-1
 315 542 l 1,21,-1
 15 542 l 1,18,-1
EndSplineSet
EndChar

StartChar: Q
Encoding: 81 81 51
Width: 955
GlyphClass: 1
Flags: W
LayerCount: 2
Fore
SplineSet
773 417 m 2,0,-1
 773 515 l 1,1,-1
 711 515 l 2,2,3
 679 515 679 515 679 558 c 0,4,5
 679 572 679 572 688.5 582.5 c 128,-1,6
 698 593 698 593 711 593 c 2,7,-1
 775 593 l 2,8,9
 795 593 795 593 825 578 c 0,10,11
 832 575 832 575 840.5 554.5 c 128,-1,12
 849 534 849 534 849 515 c 2,13,-1
 849 393 l 2,14,15
 849 366 849 366 834 342 c 0,16,17
 826 328 826 328 798 299 c 0,18,19
 756 254 756 254 706 240 c 1,20,-1
 854 29 l 1,21,22
 852 19 852 19 851 8 c 1,23,24
 846 -1 846 -1 821 -1 c 0,25,26
 771 -1 771 -1 762 29 c 1,27,-1
 544 343 l 1,28,29
 515 328 515 328 500 309 c 0,30,31
 477 280 477 280 472 264 c 0,32,33
 469 253 469 253 469 222 c 2,34,-1
 469 67 l 1,35,-1
 558 67 l 2,36,37
 581 67 581 67 581 29 c 0,38,39
 581 -1 581 -1 558 -1 c 2,40,-1
 439 -1 l 2,41,42
 422 -1 422 -1 407 16 c 1,43,44
 396 36 396 36 396 55 c 2,45,-1
 396 222 l 2,46,47
 396 296 396 296 432 343 c 0,48,49
 464 385 464 385 500 405 c 1,50,-1
 396 566 l 1,51,52
 399 588 399 588 432 588 c 0,53,54
 464 588 464 588 479 578 c 1,55,-1
 667 303 l 1,56,57
 719 306 719 306 756 355 c 0,58,59
 773 378 773 378 773 417 c 2,0,-1
69 -148 m 1,60,-1
 69 -140 l 1,61,-1
 166 -39 l 2,62,63
 245 43 245 43 245 114 c 0,64,65
 245 196 245 196 164 196 c 0,66,67
 108 196 108 196 83 122 c 1,68,-1
 71 126 l 1,69,70
 92 238 92 238 193 238 c 0,71,72
 235 238 235 238 265 209 c 128,-1,73
 295 180 295 180 295 138 c 0,74,75
 295 72 295 72 217 -9 c 2,76,-1
 125 -104 l 1,77,-1
 248 -104 l 2,78,79
 280 -104 280 -104 290 -98.5 c 128,-1,80
 300 -93 300 -93 316 -67 c 1,81,-1
 324 -69 l 1,82,-1
 292 -148 l 1,83,-1
 69 -148 l 1,60,-1
EndSplineSet
EndChar

StartChar: R
Encoding: 82 82 52
Width: 389
GlyphClass: 1
Flags: W
LayerCount: 2
Fore
SplineSet
51 153 m 1,0,-1
 68 153 l 1,1,2
 91 13 91 13 198 13 c 0,3,4
 232 13 232 13 255 32.5 c 128,-1,5
 278 52 278 52 278 85 c 0,6,7
 278 128 278 128 219 165 c 0,8,9
 165 198 165 198 110 231 c 1,10,11
 51 275 51 275 51 335 c 0,12,13
 51 391 51 391 93 426 c 0,14,15
 133 458 133 458 191 458 c 0,16,17
 213 458 213 458 265 440 c 0,18,19
 277 436 277 436 285 436 c 0,20,21
 297 436 297 436 302 449 c 1,22,-1
 315 449 l 1,23,-1
 315 313 l 1,24,-1
 299 313 l 1,25,26
 283 373 283 373 262 400 c 0,27,28
 235 435 235 435 189 435 c 0,29,30
 159 435 159 435 136 417 c 128,-1,31
 113 399 113 399 113 370 c 0,32,33
 113 329 113 329 174 290 c 0,34,35
 230 256 230 256 287 222 c 1,36,37
 348 177 348 177 348 124 c 0,38,39
 348 62 348 62 305 26 c 128,-1,40
 262 -10 262 -10 199 -10 c 0,41,42
 178 -10 178 -10 127 5 c 0,43,44
 101 13 101 13 87 13 c 0,45,46
 69 13 69 13 65 -2 c 1,47,-1
 51 -2 l 1,48,-1
 51 153 l 1,0,-1
325 681 m 1,49,-1
 359 681 l 1,50,-1
 234 514 l 1,51,-1
 172 514 l 1,52,-1
 47 681 l 1,53,-1
 82 681 l 1,54,-1
 203 578 l 1,55,-1
 325 681 l 1,49,-1
EndSplineSet
EndChar

StartChar: S
Encoding: 83 83 53
Width: 540
GlyphClass: 1
Flags: W
LayerCount: 2
Fore
SplineSet
127 573 m 0,0,1
 127 592 127 592 142 607.5 c 128,-1,2
 157 623 157 623 176 623 c 0,3,4
 196 623 196 623 211 608 c 128,-1,5
 226 593 226 593 226 573 c 256,6,7
 226 553 226 553 211 538 c 128,-1,8
 196 523 196 523 176 523 c 0,9,10
 157 523 157 523 142 538 c 128,-1,11
 127 553 127 553 127 573 c 0,0,1
425 573 m 256,12,13
 425 553 425 553 410 538 c 128,-1,14
 395 523 395 523 375 523 c 0,15,16
 356 523 356 523 341 538 c 128,-1,17
 326 553 326 553 326 573 c 0,18,19
 326 592 326 592 341 607.5 c 128,-1,20
 356 623 356 623 375 623 c 0,21,22
 395 623 395 623 410 608 c 128,-1,23
 425 593 425 593 425 573 c 256,12,13
442 119 m 2,24,25
 442 77 442 77 452.5 63 c 128,-1,26
 463 49 463 49 504 50 c 1,27,-1
 504 36 l 1,28,29
 465 24 465 24 363 -10 c 1,30,-1
 363 76 l 1,31,-1
 342 53 l 2,32,33
 284 -10 284 -10 214 -10 c 0,34,35
 97 -10 97 -10 97 132 c 2,36,-1
 97 361 l 2,37,38
 97 404 97 404 89 417 c 0,39,40
 77 434 77 434 34 434 c 1,41,-1
 34 448 l 1,42,-1
 182 448 l 1,43,-1
 182 136 l 2,44,45
 182 48 182 48 257 48 c 0,46,47
 296 48 296 48 335 80 c 0,48,49
 354 95 354 95 357 110 c 0,50,51
 357 113 357 113 357 150 c 2,52,-1
 357 359 l 2,53,54
 357 409 357 409 344 421 c 128,-1,55
 331 433 331 433 284 434 c 1,56,-1
 284 448 l 1,57,-1
 442 448 l 1,58,-1
 442 119 l 2,24,25
EndSplineSet
EndChar

StartChar: T
Encoding: 84 84 54
Width: 695
GlyphClass: 1
Flags: W
LayerCount: 2
Fore
SplineSet
125 618 m 1,0,-1
 621 618 l 1,1,-1
 549 521 l 1,2,-1
 451 521 l 2,3,4
 441 521 441 521 441 486 c 0,5,6
 441 476 441 476 442 443.5 c 128,-1,7
 443 411 443 411 443 391 c 0,8,9
 443 177 443 177 310 128 c 0,10,11
 309 127 309 127 309 126 c 0,12,13
 309 114 309 114 355 91 c 0,14,15
 410 63 410 63 473 63 c 0,16,17
 503 63 503 63 564 84 c 0,18,19
 615 102 615 102 616 103 c 1,20,-1
 539 9 l 1,21,22
 518 -1 518 -1 476 -1 c 0,23,24
 379 -1 379 -1 286 41 c 0,25,26
 174 91 174 91 147 177 c 0,27,28
 137 209 137 209 137 243 c 0,29,30
 137 322 137 322 190 402 c 0,31,32
 234 468 234 468 301 520 c 1,33,34
 64 528 64 528 55 521 c 1,35,-1
 125 618 l 1,0,-1
221 380 m 0,36,37
 212 314 212 314 212 291 c 0,38,39
 212 217 212 217 280 166 c 0,40,41
 283 163 283 163 299 195 c 0,42,43
 319 233 319 233 331 286 c 0,44,45
 348 357 348 357 348 439 c 0,46,47
 348 488 348 488 342 539 c 1,48,49
 310 514 310 514 285 489 c 0,50,51
 227 429 227 429 221 380 c 0,36,37
EndSplineSet
EndChar

StartChar: U
Encoding: 85 85 55
Width: 400
GlyphClass: 1
Flags: W
LayerCount: 2
Fore
SplineSet
195 400 m 0,0,1
 140 400 140 400 102.5 439 c 128,-1,2
 65 478 65 478 65 534 c 256,3,4
 65 590 65 590 104.5 629.5 c 128,-1,5
 144 669 144 669 200 669 c 256,6,7
 256 669 256 669 295.5 629.5 c 128,-1,8
 335 590 335 590 335 534 c 0,9,10
 335 479 335 479 293 439.5 c 128,-1,11
 251 400 251 400 195 400 c 0,0,1
199 644 m 0,12,13
 154 644 154 644 122 611.5 c 128,-1,14
 90 579 90 579 90 534 c 256,15,16
 90 489 90 489 122 457 c 128,-1,17
 154 425 154 425 200 425 c 0,18,19
 245 425 245 425 277.5 457 c 128,-1,20
 310 489 310 489 310 534 c 256,21,22
 310 579 310 579 277.5 611.5 c 128,-1,23
 245 644 245 644 199 644 c 0,12,13
EndSplineSet
EndChar

StartChar: V
Encoding: 86 86 56
Width: 785
GlyphClass: 1
Flags: W
LayerCount: 2
Fore
SplineSet
194 227 m 1,0,1
 45 325 45 325 45 493 c 0,2,3
 45 655 45 655 196 749 c 1,4,-1
 201 738 l 1,5,6
 98 667 98 667 98 499 c 0,7,8
 98 409 98 409 115 357 c 0,9,10
 138 286 138 286 201 236 c 1,11,-1
 194 227 l 1,0,1
228 428 m 1,12,-1
 415 695 l 1,13,-1
 442 695 l 1,14,-1
 442 428 l 1,15,-1
 504 428 l 1,16,-1
 504 390 l 1,17,-1
 442 390 l 1,18,-1
 442 289 l 1,19,-1
 397 289 l 1,20,-1
 397 390 l 1,21,-1
 228 390 l 1,22,-1
 228 428 l 1,12,-1
572 236 m 1,23,24
 635 286 635 286 658 357 c 0,25,26
 675 409 675 409 675 499 c 0,27,28
 675 667 675 667 572 738 c 1,29,-1
 577 749 l 1,30,31
 728 655 728 655 728 493 c 0,32,33
 728 325 728 325 579 227 c 1,34,-1
 572 236 l 1,23,24
392 428 m 1,35,-1
 392 632 l 1,36,-1
 247 428 l 1,37,-1
 392 428 l 1,35,-1
EndSplineSet
EndChar

StartChar: W
Encoding: 87 87 57
Width: 775
GlyphClass: 1
Flags: W
LayerCount: 2
Fore
SplineSet
194 232 m 1,0,1
 45 330 45 330 45 498 c 0,2,3
 45 660 45 660 196 754 c 1,4,-1
 201 743 l 1,5,6
 98 672 98 672 98 504 c 0,7,8
 98 414 98 414 115 362 c 0,9,10
 138 291 138 291 201 241 c 1,11,-1
 194 232 l 1,0,1
283 604 m 1,12,13
 313 700 313 700 401 700 c 0,14,15
 494 700 494 700 494 620 c 0,16,17
 494 570 494 570 438 535 c 1,18,19
 515 505 515 505 515 422 c 0,20,21
 515 358 515 358 464 320 c 0,22,23
 418 286 418 286 351 286 c 0,24,25
 282 286 282 286 282 320 c 0,26,27
 282 341 282 341 305 341 c 0,28,29
 318 341 318 341 345 324 c 128,-1,30
 372 307 372 307 390 307 c 0,31,32
 427 307 427 307 449 332.5 c 128,-1,33
 471 358 471 358 471 395 c 0,34,35
 471 493 471 493 348 493 c 1,36,-1
 347 500 l 1,37,38
 446 533 446 533 446 600 c 0,39,40
 446 630 446 630 428 647.5 c 128,-1,41
 410 665 410 665 381 665 c 0,42,43
 327 665 327 665 291 601 c 1,44,-1
 283 604 l 1,12,13
572 241 m 1,45,46
 635 291 635 291 658 362 c 0,47,48
 675 414 675 414 675 504 c 0,49,50
 675 672 675 672 572 743 c 1,51,-1
 577 754 l 1,52,53
 728 660 728 660 728 498 c 0,54,55
 728 330 728 330 579 232 c 1,56,-1
 572 241 l 1,45,46
EndSplineSet
EndChar

StartChar: X
Encoding: 88 88 58
Width: 500
GlyphClass: 1
Flags: W
LayerCount: 2
Fore
SplineSet
328 408 m 2,0,1
 426 328 426 328 426 248 c 0,2,3
 426 188 426 188 389.5 154 c 128,-1,4
 353 120 353 120 294 125 c 1,5,6
 341 83 341 83 358 60 c 0,7,8
 386 21 386 21 386 -27 c 0,9,10
 386 -93 386 -93 321 -131 c 1,11,12
 279 -148 279 -148 241 -148 c 0,13,14
 187 -148 187 -148 148 -121 c 0,15,16
 104 -90 104 -90 104 -50 c 0,17,18
 104 -29 104 -29 117 -9.5 c 128,-1,19
 130 10 130 10 148 10 c 0,20,21
 206 10 206 10 206 -40 c 0,22,23
 206 -54 206 -54 190 -72 c 2,24,-1
 171 -93 l 1,25,26
 175 -106 175 -106 199 -116.5 c 128,-1,27
 223 -127 223 -127 246 -127 c 0,28,29
 281 -127 281 -127 305.5 -107 c 128,-1,30
 330 -87 330 -87 330 -52 c 0,31,32
 330 -1 330 -1 263 52 c 0,33,34
 201 99 201 99 139 146 c 1,35,36
 72 209 72 209 72 283 c 0,37,38
 72 344 72 344 109 376.5 c 128,-1,39
 146 409 146 409 207 404 c 1,40,41
 156 448 156 448 137 475 c 0,42,43
 110 512 110 512 110 555 c 0,44,45
 110 613 110 613 153 646 c 0,46,47
 193 676 193 676 252 676 c 0,48,49
 301 676 301 676 337 651 c 0,50,51
 377 622 377 622 377 575 c 0,52,53
 377 525 377 525 323 525 c 0,54,55
 304 525 304 525 292 538 c 128,-1,56
 280 551 280 551 280 570 c 0,57,58
 280 592 280 592 315 627 c 1,59,60
 287 655 287 655 250 655 c 0,61,62
 215 655 215 655 192 637 c 0,63,64
 166 617 166 617 166 583 c 0,65,66
 166 540 166 540 209 505 c 2,67,-1
 328 408 l 2,0,1
122 313 m 0,68,69
 122 269 122 269 188 211 c 0,70,71
 262 146 262 146 301 146 c 0,72,73
 335 146 335 146 354.5 166 c 128,-1,74
 374 186 374 186 374 220 c 0,75,76
 374 255 374 255 304.5 319.5 c 128,-1,77
 235 384 235 384 192 384 c 0,78,79
 162 384 162 384 142 363.5 c 128,-1,80
 122 343 122 343 122 313 c 0,68,69
EndSplineSet
EndChar

StartChar: Y
Encoding: 89 89 59
Width: 795
GlyphClass: 1
Flags: W
LayerCount: 2
Fore
SplineSet
204 232 m 1,0,1
 55 330 55 330 55 498 c 0,2,3
 55 660 55 660 206 754 c 1,4,-1
 211 743 l 1,5,6
 108 672 108 672 108 504 c 0,7,8
 108 414 108 414 125 362 c 0,9,10
 148 291 148 291 211 241 c 1,11,-1
 204 232 l 1,0,1
506 386 m 0,12,13
 506 340 506 340 470.5 313 c 128,-1,14
 435 286 435 286 387 286 c 0,15,16
 340 286 340 286 308 311 c 0,17,18
 273 339 273 339 273 385 c 0,19,20
 273 438 273 438 351 493 c 1,21,22
 301 541 301 541 299 543 c 0,23,24
 276 571 276 571 276 611 c 0,25,26
 276 645 276 645 307.5 672.5 c 128,-1,27
 339 700 339 700 392 700 c 0,28,29
 432 700 432 700 461 679 c 0,30,31
 494 656 494 656 494 618 c 0,32,33
 494 560 494 560 413 517 c 1,34,35
 460 480 460 480 475 462 c 0,36,37
 506 427 506 427 506 386 c 0,12,13
582 241 m 1,38,39
 645 291 645 291 668 362 c 0,40,41
 685 414 685 414 685 504 c 0,42,43
 685 672 685 672 582 743 c 1,44,-1
 587 754 l 1,45,46
 738 660 738 660 738 498 c 0,47,48
 738 330 738 330 589 232 c 1,49,-1
 582 241 l 1,38,39
452 617 m 0,50,51
 452 648 452 648 434 666 c 128,-1,52
 416 684 416 684 386 684 c 0,53,54
 358 684 358 684 339.5 667.5 c 128,-1,55
 321 651 321 651 321 624 c 0,56,57
 321 574 321 574 395 528 c 1,58,59
 452 559 452 559 452 617 c 0,50,51
318 391 m 0,60,61
 318 301 318 301 395 301 c 0,62,63
 425 301 425 301 442.5 320 c 128,-1,64
 460 339 460 339 460 370 c 0,65,66
 460 404 460 404 427 435 c 0,67,68
 413 449 413 449 366 481 c 0,69,70
 362 479 362 479 359 476 c 0,71,72
 318 443 318 443 318 391 c 0,60,61
EndSplineSet
EndChar

StartChar: Z
Encoding: 90 90 60
Width: 795
GlyphClass: 1
Flags: W
LayerCount: 2
Fore
SplineSet
209 232 m 1,0,1
 60 330 60 330 60 498 c 0,2,3
 60 660 60 660 211 754 c 1,4,-1
 216 743 l 1,5,6
 113 672 113 672 113 504 c 0,7,8
 113 414 113 414 130 362 c 0,9,10
 153 291 153 291 216 241 c 1,11,-1
 209 232 l 1,0,1
382 286 m 1,12,-1
 342 286 l 1,13,-1
 462 647 l 1,14,-1
 340 647 l 2,15,16
 309 647 309 647 295 638 c 128,-1,17
 281 629 281 629 263 599 c 1,18,-1
 252 604 l 1,19,-1
 288 691 l 1,20,-1
 510 691 l 1,21,-1
 510 683 l 1,22,-1
 382 286 l 1,12,-1
587 241 m 1,23,24
 650 291 650 291 673 362 c 0,25,26
 690 414 690 414 690 504 c 0,27,28
 690 672 690 672 587 743 c 1,29,-1
 592 754 l 1,30,31
 743 660 743 660 743 498 c 0,32,33
 743 330 743 330 594 232 c 1,34,-1
 587 241 l 1,23,24
EndSplineSet
EndChar

StartChar: bracketleft
Encoding: 91 91 61
Width: 840
GlyphClass: 1
Flags: W
LayerCount: 2
Fore
SplineSet
637 456 m 0,0,1
 634 454 634 454 634 451 c 0,2,3
 634 446 634 446 662 431 c 0,4,5
 700 413 700 413 719 398 c 0,6,7
 752 372 752 372 760 340.5 c 128,-1,8
 768 309 768 309 768 278 c 0,9,10
 768 166 768 166 665 87 c 0,11,12
 569 14 569 14 434 2 c 0,13,14
 296 -10 296 -10 198 51 c 0,15,16
 56 139 56 139 56 295 c 0,17,18
 56 371 56 371 93.5 438 c 128,-1,19
 131 505 131 505 196 541 c 0,20,21
 322 612 322 612 431 600 c 1,22,23
 506 580 506 580 582 561 c 0,24,25
 658 544 658 544 721 602 c 0,26,27
 723 604 723 604 724 604 c 0,28,29
 726 603 726 603 726 600 c 0,30,31
 726 580 726 580 701 534 c 0,32,33
 672 480 672 480 637 456 c 0,0,1
631 138 m 0,35,36
 661 182 661 182 661 232 c 0,37,38
 661 277 661 277 637 308 c 128,-1,39
 613 339 613 339 575 339 c 0,40,41
 563 339 563 339 551 336 c 0,42,43
 490 320 490 320 407 261 c 0,44,45
 335 210 335 210 292 210 c 0,46,47
 236 210 236 210 161 273 c 1,48,49
 172 243 172 243 182 212 c 0,50,51
 215 141 215 141 262 96 c 0,52,53
 329 34 329 34 415 34 c 0,54,55
 472 34 472 34 535 61 c 128,-1,34
 598 88 598 88 631 138 c 0,35,36
541 454 m 1,56,57
 392 534 392 534 295 534 c 0,58,59
 229 534 229 534 206 491 c 0,60,61
 187 455 187 455 187 422 c 0,62,63
 187 369 187 369 234 342 c 0,64,65
 266 324 266 324 289 324 c 0,66,67
 315 324 315 324 347 350 c 0,68,69
 405 398 405 398 417 406 c 0,70,71
 471 440 471 440 541 454 c 1,56,57
EndSplineSet
EndChar

StartChar: backslash
Encoding: 92 92 62
Width: 585
GlyphClass: 1
Flags: W
LayerCount: 2
Fore
SplineSet
40 450 m 1,0,-1
 186 522 l 1,1,-1
 383 119 l 1,2,-1
 510 917 l 1,3,-1
 545 912 l 1,4,-1
 395 -38 l 1,5,-1
 152 464 l 1,6,-1
 56 417 l 1,7,-1
 40 450 l 1,0,-1
EndSplineSet
EndChar

StartChar: bracketright
Encoding: 93 93 63
Width: 810
GlyphClass: 1
Flags: W
LayerCount: 2
Fore
SplineSet
626 456 m 1,0,1
 686 429 686 429 722 368 c 0,2,3
 752 317 752 317 753 269 c 0,4,5
 756 147 756 147 603 46 c 0,6,7
 525 -6 525 -6 409 -6 c 0,8,9
 308 -6 308 -6 229 44 c 0,10,11
 63 149 63 149 55 308 c 256,12,13
 47 467 47 467 179 531 c 0,14,15
 265 573 265 573 383 568 c 1,16,17
 296 547 296 547 229 471 c 128,-1,18
 162 395 162 395 162 316 c 0,19,20
 162 301 162 301 165 288 c 0,21,22
 188 165 188 165 260 93 c 0,23,24
 336 18 336 18 447 18 c 0,25,26
 524 18 524 18 580.5 79 c 128,-1,27
 637 140 637 140 637 220 c 0,28,29
 637 273 637 273 607.5 321 c 128,-1,30
 578 369 578 369 510 369 c 0,31,32
 488 369 488 369 467 362 c 1,33,34
 483 372 483 372 626 456 c 1,0,1
619 455 m 1,35,36
 509 560 509 560 433 560 c 0,37,38
 422 560 422 560 413 558 c 0,39,40
 385 551 385 551 385 526 c 0,41,42
 385 497 385 497 447.5 400.5 c 128,-1,43
 510 304 510 304 511 268 c 0,44,45
 512 201 512 201 467 116 c 0,46,47
 430 46 430 46 401 25 c 1,48,49
 410 62 410 62 423 135 c 0,50,51
 424 151 424 151 424 166 c 0,52,53
 424 233 424 233 396 294 c 0,54,55
 390 306 390 306 343 382 c 0,56,57
 314 429 314 429 314 462 c 0,58,59
 314 507 314 507 380.5 570 c 128,-1,60
 447 633 447 633 498 633 c 0,61,62
 537 633 537 633 592.5 596 c 128,-1,63
 648 559 648 559 667 557 c 0,64,65
 674 555 674 555 697 563 c 128,-1,66
 720 571 720 571 720 569 c 256,67,68
 720 567 720 567 718 565 c 2,69,-1
 619 455 l 1,35,36
EndSplineSet
EndChar

StartChar: asciicircum
Encoding: 94 94 64
Width: 805
GlyphClass: 1
Flags: W
LayerCount: 2
Fore
SplineSet
209 232 m 1,0,1
 60 330 60 330 60 498 c 0,2,3
 60 660 60 660 211 754 c 1,4,-1
 216 743 l 1,5,6
 113 672 113 672 113 504 c 0,7,8
 113 414 113 414 130 362 c 0,9,10
 153 291 153 291 216 241 c 1,11,-1
 209 232 l 1,0,1
288 294 m 1,12,-1
 288 302 l 1,13,-1
 390 409 l 2,14,15
 473 496 473 496 473 570 c 0,16,17
 473 610 473 610 450.5 633 c 128,-1,18
 428 656 428 656 388 656 c 0,19,20
 329 656 329 656 302 578 c 1,21,-1
 290 582 l 1,22,23
 299 635 299 635 332 667.5 c 128,-1,24
 365 700 365 700 418 700 c 0,25,26
 462 700 462 700 493.5 669.5 c 128,-1,27
 525 639 525 639 525 595 c 0,28,29
 525 525 525 525 443 440 c 2,30,-1
 347 340 l 1,31,-1
 476 340 l 2,32,33
 509 340 509 340 519.5 345.5 c 128,-1,34
 530 351 530 351 548 379 c 1,35,-1
 556 377 l 1,36,-1
 522 294 l 1,37,-1
 288 294 l 1,12,-1
587 241 m 1,38,39
 650 291 650 291 673 362 c 0,40,41
 690 414 690 414 690 504 c 0,42,43
 690 672 690 672 587 743 c 1,44,-1
 592 754 l 1,45,46
 743 660 743 660 743 498 c 0,47,48
 743 330 743 330 594 232 c 1,49,-1
 587 241 l 1,38,39
EndSplineSet
EndChar

StartChar: underscore
Encoding: 95 95 65
Width: 1065
GlyphClass: 1
Flags: W
LayerCount: 2
Fore
SplineSet
199 237 m 1,0,1
 50 335 50 335 50 503 c 0,2,3
 50 665 50 665 201 759 c 1,4,-1
 206 748 l 1,5,6
 103 677 103 677 103 509 c 0,7,8
 103 419 103 419 120 367 c 0,9,10
 143 296 143 296 206 246 c 1,11,-1
 199 237 l 1,0,1
349 617 m 2,12,13
 349 652 349 652 331 652 c 0,14,15
 322 652 322 652 288 639 c 1,16,-1
 288 647 l 1,17,-1
 400 705 l 1,18,-1
 400 347 l 2,19,20
 400 323 400 323 417 314 c 0,21,22
 427 309 427 309 457 307 c 1,23,-1
 457 299 l 1,24,-1
 292 299 l 1,25,-1
 292 307 l 1,26,27
 322 309 322 309 332 314 c 0,28,29
 349 323 349 323 349 347 c 2,30,-1
 349 617 l 2,12,13
847 246 m 1,31,32
 910 296 910 296 933 367 c 0,33,34
 950 419 950 419 950 509 c 0,35,36
 950 677 950 677 847 748 c 1,37,-1
 852 759 l 1,38,39
 1003 665 1003 665 1003 503 c 0,40,41
 1003 335 1003 335 854 237 c 1,42,-1
 847 246 l 1,31,32
649 617 m 2,43,44
 649 652 649 652 631 652 c 0,45,46
 622 652 622 652 588 639 c 1,47,-1
 588 647 l 1,48,-1
 700 705 l 1,49,-1
 700 347 l 2,50,51
 700 323 700 323 717 314 c 0,52,53
 727 309 727 309 757 307 c 1,54,-1
 757 299 l 1,55,-1
 592 299 l 1,56,-1
 592 307 l 1,57,58
 622 309 622 309 632 314 c 0,59,60
 649 323 649 323 649 347 c 2,61,-1
 649 617 l 2,43,44
EndSplineSet
EndChar

StartChar: grave
Encoding: 96 96 66
Width: 1135
GlyphClass: 1
Flags: W
LayerCount: 2
Fore
SplineSet
219 237 m 1,0,1
 70 335 70 335 70 503 c 0,2,3
 70 665 70 665 221 759 c 1,4,-1
 226 748 l 1,5,6
 123 677 123 677 123 509 c 0,7,8
 123 419 123 419 140 367 c 0,9,10
 163 296 163 296 226 246 c 1,11,-1
 219 237 l 1,0,1
369 617 m 2,12,13
 369 652 369 652 351 652 c 0,14,15
 342 652 342 652 308 639 c 1,16,-1
 308 647 l 1,17,-1
 420 705 l 1,18,-1
 420 347 l 2,19,20
 420 323 420 323 437 314 c 0,21,22
 447 309 447 309 477 307 c 1,23,-1
 477 299 l 1,24,-1
 312 299 l 1,25,-1
 312 307 l 1,26,27
 342 309 342 309 352 314 c 0,28,29
 369 323 369 323 369 347 c 2,30,-1
 369 617 l 2,12,13
897 246 m 1,31,32
 960 296 960 296 983 367 c 0,33,34
 1000 419 1000 419 1000 509 c 0,35,36
 1000 677 1000 677 897 748 c 1,37,-1
 902 759 l 1,38,39
 1053 665 1053 665 1053 503 c 0,40,41
 1053 335 1053 335 904 237 c 1,42,-1
 897 246 l 1,31,32
558 299 m 1,43,-1
 558 307 l 1,44,-1
 660 414 l 2,45,46
 743 501 743 501 743 575 c 0,47,48
 743 615 743 615 720.5 638 c 128,-1,49
 698 661 698 661 658 661 c 0,50,51
 599 661 599 661 572 583 c 1,52,-1
 560 587 l 1,53,54
 569 640 569 640 602 672.5 c 128,-1,55
 635 705 635 705 688 705 c 0,56,57
 732 705 732 705 763.5 674.5 c 128,-1,58
 795 644 795 644 795 600 c 0,59,60
 795 530 795 530 713 445 c 2,61,-1
 617 345 l 1,62,-1
 746 345 l 2,63,64
 779 345 779 345 789.5 350.5 c 128,-1,65
 800 356 800 356 818 384 c 1,66,-1
 826 382 l 1,67,-1
 792 299 l 1,68,-1
 558 299 l 1,43,-1
EndSplineSet
EndChar

StartChar: a
Encoding: 97 97 67
Width: 389
GlyphClass: 1
Flags: W
LayerCount: 2
Fore
SplineSet
51 153 m 1,0,-1
 68 153 l 1,1,2
 91 13 91 13 198 13 c 0,3,4
 232 13 232 13 255 32.5 c 128,-1,5
 278 52 278 52 278 85 c 0,6,7
 278 128 278 128 219 165 c 0,8,9
 165 198 165 198 110 231 c 1,10,11
 51 275 51 275 51 335 c 0,12,13
 51 391 51 391 93 426 c 0,14,15
 133 458 133 458 191 458 c 0,16,17
 213 458 213 458 265 440 c 0,18,19
 277 436 277 436 285 436 c 0,20,21
 297 436 297 436 302 449 c 1,22,-1
 315 449 l 1,23,-1
 315 313 l 1,24,-1
 299 313 l 1,25,26
 283 373 283 373 262 400 c 0,27,28
 235 435 235 435 189 435 c 0,29,30
 159 435 159 435 136 417 c 128,-1,31
 113 399 113 399 113 370 c 0,32,33
 113 329 113 329 174 290 c 0,34,35
 230 256 230 256 287 222 c 1,36,37
 348 177 348 177 348 124 c 0,38,39
 348 62 348 62 305 26 c 128,-1,40
 262 -10 262 -10 199 -10 c 0,41,42
 178 -10 178 -10 127 5 c 0,43,44
 101 13 101 13 87 13 c 0,45,46
 69 13 69 13 65 -2 c 1,47,-1
 51 -2 l 1,48,-1
 51 153 l 1,0,-1
261 507 m 1,49,-1
 221 507 l 1,50,-1
 77 598 l 2,51,52
 34 625 34 625 34 641 c 0,53,54
 34 678 34 678 65 678 c 0,55,56
 100 678 100 678 123 646 c 1,57,-1
 261 507 l 1,49,-1
EndSplineSet
EndChar

StartChar: b
Encoding: 98 98 68
Width: 1115
GlyphClass: 1
Flags: W
LayerCount: 2
Fore
SplineSet
214 237 m 1,0,1
 65 335 65 335 65 503 c 0,2,3
 65 665 65 665 216 759 c 1,4,-1
 221 748 l 1,5,6
 118 677 118 677 118 509 c 0,7,8
 118 419 118 419 135 367 c 0,9,10
 158 296 158 296 221 246 c 1,11,-1
 214 237 l 1,0,1
364 617 m 2,12,13
 364 652 364 652 346 652 c 0,14,15
 337 652 337 652 303 639 c 1,16,-1
 303 647 l 1,17,-1
 415 705 l 1,18,-1
 415 347 l 2,19,20
 415 323 415 323 432 314 c 0,21,22
 442 309 442 309 472 307 c 1,23,-1
 472 299 l 1,24,-1
 307 299 l 1,25,-1
 307 307 l 1,26,27
 337 309 337 309 347 314 c 0,28,29
 364 323 364 323 364 347 c 2,30,-1
 364 617 l 2,12,13
892 246 m 1,31,32
 955 296 955 296 978 367 c 0,33,34
 995 419 995 419 995 509 c 0,35,36
 995 677 995 677 892 748 c 1,37,-1
 897 759 l 1,38,39
 1048 665 1048 665 1048 503 c 0,40,41
 1048 335 1048 335 899 237 c 1,42,-1
 892 246 l 1,31,32
543 438 m 1,43,-1
 730 705 l 1,44,-1
 757 705 l 1,45,-1
 757 438 l 1,46,-1
 819 438 l 1,47,-1
 819 400 l 1,48,-1
 757 400 l 1,49,-1
 757 299 l 1,50,-1
 712 299 l 1,51,-1
 712 400 l 1,52,-1
 543 400 l 1,53,-1
 543 438 l 1,43,-1
712 438 m 1,54,-1
 712 642 l 1,55,-1
 567 438 l 1,56,-1
 712 438 l 1,54,-1
EndSplineSet
EndChar

StartChar: c
Encoding: 99 99 69
Width: 1115
GlyphClass: 1
Flags: W
LayerCount: 2
Fore
SplineSet
214 232 m 1,0,1
 65 330 65 330 65 498 c 0,2,3
 65 660 65 660 216 754 c 1,4,-1
 221 743 l 1,5,6
 118 672 118 672 118 504 c 0,7,8
 118 414 118 414 135 362 c 0,9,10
 158 291 158 291 221 241 c 1,11,-1
 214 232 l 1,0,1
364 612 m 2,12,13
 364 647 364 647 346 647 c 0,14,15
 337 647 337 647 303 634 c 1,16,-1
 303 642 l 1,17,-1
 415 700 l 1,18,-1
 415 342 l 2,19,20
 415 318 415 318 432 309 c 0,21,22
 442 304 442 304 472 302 c 1,23,-1
 472 294 l 1,24,-1
 307 294 l 1,25,-1
 307 302 l 1,26,27
 337 304 337 304 347 309 c 0,28,29
 364 318 364 318 364 342 c 2,30,-1
 364 612 l 2,12,13
892 241 m 1,31,32
 955 291 955 291 978 362 c 0,33,34
 995 414 995 414 995 504 c 0,35,36
 995 672 995 672 892 743 c 1,37,-1
 897 754 l 1,38,39
 1048 660 1048 660 1048 498 c 0,40,41
 1048 330 1048 330 899 232 c 1,42,-1
 892 241 l 1,31,32
619 593 m 1,43,44
 704 579 704 579 741 551 c 0,45,46
 791 513 791 513 791 431 c 0,47,48
 791 365 791 365 745 325.5 c 128,-1,49
 699 286 699 286 630 286 c 0,50,51
 560 286 560 286 555 318 c 0,52,53
 551 344 551 344 582 344 c 0,54,55
 601 344 601 344 625.5 325.5 c 128,-1,56
 650 307 650 307 665 307 c 0,57,58
 703 307 703 307 726 337 c 128,-1,59
 749 367 749 367 749 412 c 0,60,61
 749 475 749 475 694 510 c 0,62,63
 650 536 650 536 581 541 c 0,64,65
 572 543 572 543 575 548 c 2,66,-1
 640 691 l 1,67,-1
 759 691 l 2,68,69
 780 691 780 691 793 707 c 1,70,-1
 798 703 l 1,71,-1
 771 644 l 1,72,-1
 645 644 l 1,73,-1
 619 593 l 1,43,44
EndSplineSet
EndChar

StartChar: d
Encoding: 100 100 70
Width: 556
GlyphClass: 1
Flags: W
LayerCount: 2
Fore
SplineSet
42 201 m 1,0,-1
 65 201 l 1,1,2
 90 125 90 125 140 78 c 0,3,4
 197 24 197 24 272 24 c 0,5,6
 323 24 323 24 356.5 56.5 c 128,-1,7
 390 89 390 89 390 136 c 0,8,9
 390 154 390 154 385 172 c 0,10,11
 369 228 369 228 285 279 c 0,12,13
 148 364 148 364 143 368 c 0,14,15
 71 427 71 427 71 509 c 0,16,17
 71 582 71 582 122 629 c 128,-1,18
 173 676 173 676 248 676 c 0,19,20
 289 676 289 676 336 659.5 c 128,-1,21
 383 643 383 643 393 643 c 0,22,23
 415 643 415 643 426 676 c 1,24,-1
 447 676 l 1,25,-1
 469 463 l 1,26,-1
 444 463 l 1,27,28
 426 537 426 537 379 584 c 0,29,30
 329 635 329 635 262 635 c 0,31,32
 215 635 215 635 186 610 c 128,-1,33
 157 585 157 585 157 539 c 0,34,35
 157 478 157 478 263 414 c 0,36,37
 399 332 399 332 428 306 c 0,38,39
 491 249 491 249 491 169 c 0,40,41
 491 96 491 96 437 44 c 0,42,43
 377 -14 377 -14 280 -14 c 0,44,45
 241 -14 241 -14 188 2 c 128,-1,46
 135 18 135 18 124 18 c 0,47,48
 98 18 98 18 94 -14 c 1,49,-1
 72 -14 l 1,50,-1
 42 201 l 1,0,-1
326 703 m 1,51,-1
 286 703 l 1,52,-1
 142 794 l 2,53,54
 99 821 99 821 99 837 c 0,55,56
 99 874 99 874 130 874 c 0,57,58
 165 874 165 874 188 842 c 1,59,-1
 326 703 l 1,51,-1
EndSplineSet
EndChar

StartChar: e
Encoding: 101 101 71
Width: 860
GlyphClass: 1
Flags: W
LayerCount: 2
Fore
SplineSet
239 237 m 1,0,1
 90 335 90 335 90 503 c 0,2,3
 90 665 90 665 241 759 c 1,4,-1
 246 748 l 1,5,6
 143 677 143 677 143 509 c 0,7,8
 143 419 143 419 160 367 c 0,9,10
 183 296 183 296 246 246 c 1,11,-1
 239 237 l 1,0,1
617 246 m 1,12,13
 680 296 680 296 703 367 c 0,14,15
 720 419 720 419 720 509 c 0,16,17
 720 677 720 677 617 748 c 1,18,-1
 622 759 l 1,19,20
 773 665 773 665 773 503 c 0,21,22
 773 335 773 335 624 237 c 1,23,-1
 617 246 l 1,12,13
529 697 m 1,24,25
 510 694 510 694 472 682 c 1,26,27
 368 634 368 634 352 529 c 1,28,29
 387 556 387 556 430 556 c 0,30,31
 482 556 482 556 511.5 521.5 c 128,-1,32
 541 487 541 487 541 427 c 0,33,34
 541 371 541 371 507 331 c 128,-1,35
 473 291 473 291 418 291 c 0,36,37
 359 291 359 291 322 336 c 0,38,39
 282 383 282 383 282 463 c 0,40,41
 282 559 282 559 341 625.5 c 128,-1,42
 400 692 400 692 493 705 c 0,43,44
 514 708 514 708 528 708 c 1,45,-1
 529 697 l 1,24,25
337 448 m 0,46,47
 337 385 337 385 360.5 346 c 128,-1,48
 384 307 384 307 427 307 c 0,49,50
 456 307 456 307 472 334.5 c 128,-1,51
 488 362 488 362 488 406 c 0,52,53
 488 528 488 528 407 528 c 0,54,55
 372 528 372 528 349 509 c 0,56,57
 337 497 337 497 337 448 c 0,46,47
EndSplineSet
EndChar

StartChar: f
Encoding: 102 102 72
Width: 564
GlyphClass: 1
Flags: W
LayerCount: 2
Fore
SplineSet
455 261 m 1,0,-1
 27 460 l 1,1,-1
 27 522 l 1,2,-1
 536 288 l 1,3,-1
 536 234 l 1,4,-1
 27 0 l 1,5,-1
 27 62 l 1,6,-1
 455 261 l 1,0,-1
EndSplineSet
EndChar

StartChar: g
Encoding: 103 103 73
Width: 0
GlyphClass: 1
Flags: W
LayerCount: 2
Fore
SplineSet
139 731 m 256,0,1
 139 754 139 754 156 771 c 128,-1,2
 173 788 173 788 195 788 c 0,3,4
 218 788 218 788 236 771 c 128,-1,5
 254 754 254 754 254 731 c 0,6,7
 254 707 254 707 236.5 690 c 128,-1,8
 219 673 219 673 195 673 c 0,9,10
 172 673 172 673 155.5 690.5 c 128,-1,11
 139 708 139 708 139 731 c 256,0,1
EndSplineSet
EndChar

StartChar: h
Encoding: 104 104 74
Width: 1065
GlyphClass: 1
Flags: W
LayerCount: 2
Fore
SplineSet
229 -133 m 2,0,1
 222 -151 222 -151 216 -151 c 0,2,3
 214 -151 214 -151 203 -133 c 2,4,-1
 93 125 l 2,5,6
 76 164 76 164 47 164 c 1,7,-1
 47 174 l 1,8,-1
 186 174 l 1,9,-1
 186 164 l 1,10,11
 154 164 154 164 154 144 c 0,12,13
 154 134 154 134 164 110 c 2,14,-1
 232 -60 l 1,15,-1
 287 85 l 2,16,17
 304 130 304 130 304 144 c 0,18,19
 304 164 304 164 274 164 c 1,20,-1
 274 174 l 1,21,-1
 372 174 l 1,22,-1
 372 164 l 1,23,24
 354 163 354 163 343 144 c 0,25,26
 338 137 338 137 323 99 c 2,27,-1
 229 -133 l 2,0,1
646 -88 m 2,28,29
 646 -110 646 -110 662 -110 c 0,30,31
 675 -110 675 -110 698 -94 c 1,32,-1
 698 -112 l 1,33,34
 666 -150 666 -150 640 -150 c 0,35,36
 589 -150 589 -150 589 -96 c 1,37,38
 528 -150 528 -150 485 -150 c 0,39,40
 453 -150 453 -150 429.5 -130 c 128,-1,41
 406 -110 406 -110 406 -80 c 0,42,43
 406 -26 406 -26 473 15 c 0,44,45
 489 24 489 24 585 64 c 1,46,47
 585 114 585 114 580 130 c 0,48,49
 570 166 570 166 533 166 c 0,50,51
 497 166 497 166 487 146 c 1,52,53
 487 146 487 146 487 105 c 0,54,55
 487 93 487 93 477.5 83.5 c 128,-1,56
 468 74 468 74 455 74 c 0,57,58
 423 74 423 74 423 103 c 0,59,60
 423 115 423 115 431 129 c 0,61,62
 461 182 461 182 544 182 c 0,63,64
 602 182 602 182 624 155 c 128,-1,65
 646 128 646 128 646 62 c 2,66,-1
 646 -88 l 2,28,29
813 62 m 2,67,68
 813 94 813 94 811 105 c 0,69,70
 805 131 805 131 785 131 c 0,71,72
 776 131 776 131 760 127 c 1,73,-1
 760 138 l 1,74,-1
 874 176 l 1,75,-1
 874 112 l 1,76,77
 911 176 911 176 955 176 c 0,78,79
 1002 176 1002 176 995 129 c 0,80,81
 992 107 992 107 965 107 c 0,82,83
 952 107 952 107 939 119.5 c 128,-1,84
 926 132 926 132 918 132 c 0,85,86
 907 132 907 132 890.5 111.5 c 128,-1,87
 874 91 874 91 874 76 c 2,88,-1
 874 -93 l 2,89,90
 874 -119 874 -119 886.5 -128.5 c 128,-1,91
 899 -138 899 -138 927 -139 c 1,92,-1
 927 -149 l 1,93,-1
 760 -149 l 1,94,-1
 760 -139 l 1,95,96
 788 -138 788 -138 800.5 -128.5 c 128,-1,97
 813 -119 813 -119 813 -93 c 2,98,-1
 813 62 l 2,67,68
573 45 m 1,99,100
 537 30 537 30 500 14 c 1,101,102
 461 -9 461 -9 461 -50 c 0,103,104
 461 -108 461 -108 511 -108 c 0,105,106
 523 -108 523 -108 545.5 -97.5 c 128,-1,107
 568 -87 568 -87 573 -77 c 1,108,-1
 573 45 l 1,99,100
EndSplineSet
EndChar

StartChar: i
Encoding: 105 105 75
Width: 1210
GlyphClass: 1
Flags: W
LayerCount: 2
Fore
SplineSet
109 79 m 2,0,1
 109 113 109 113 95 121 c 0,2,3
 86 126 86 126 64 126 c 1,4,-1
 64 138 l 1,5,-1
 169 175 l 1,6,-1
 169 128 l 2,7,8
 169 122 169 122 172 122 c 256,9,10
 175 122 175 122 183.5 130.5 c 128,-1,11
 192 139 192 139 194 141 c 0,12,13
 238 175 238 175 280 175 c 0,14,15
 307 175 307 175 327 158 c 128,-1,16
 347 141 347 141 352 115 c 1,17,18
 406 175 406 175 463 175 c 256,19,20
 520 175 520 175 540 131 c 0,21,22
 553 103 553 103 553 40 c 2,23,-1
 553 -93 l 2,24,25
 553 -136 553 -136 597 -140 c 1,26,-1
 597 -150 l 1,27,-1
 448 -150 l 1,28,-1
 448 -140 l 1,29,30
 492 -136 492 -136 492 -93 c 2,31,-1
 492 51 l 2,32,33
 492 96 492 96 486 111 c 0,34,35
 475 138 475 138 437 138 c 0,36,37
 387 138 387 138 361 94 c 1,38,-1
 361 -93 l 2,39,40
 361 -136 361 -136 406 -140 c 1,41,-1
 406 -150 l 1,42,-1
 256 -150 l 1,43,-1
 256 -140 l 1,44,45
 301 -136 301 -136 301 -93 c 2,46,-1
 301 54 l 2,47,48
 301 138 301 138 252 138 c 0,49,50
 198 138 198 138 169 96 c 1,51,-1
 169 -93 l 2,52,53
 169 -136 169 -136 214 -140 c 1,54,-1
 214 -150 l 1,55,-1
 64 -150 l 1,56,-1
 64 -140 l 1,57,58
 109 -136 109 -136 109 -93 c 2,59,-1
 109 79 l 2,0,1
643 -35 m 1,60,-1
 655 -35 l 1,61,62
 673 -135 673 -135 748 -135 c 0,63,64
 771 -135 771 -135 787.5 -121 c 128,-1,65
 804 -107 804 -107 804 -84 c 0,66,67
 804 -53 804 -53 762 -27 c 0,68,69
 724 -3 724 -3 685 20 c 1,70,71
 643 52 643 52 643 94 c 0,72,73
 643 134 643 134 672 157.5 c 128,-1,74
 701 181 701 181 743 181 c 0,75,76
 762 181 762 181 795 168 c 0,77,78
 803 166 803 166 809 166 c 0,79,80
 819 166 819 166 821 175 c 1,81,-1
 831 175 l 1,82,-1
 831 78 l 1,83,-1
 819 78 l 1,84,85
 798 165 798 165 741 165 c 0,86,87
 719 165 719 165 703 152.5 c 128,-1,88
 687 140 687 140 687 119 c 0,89,90
 687 90 687 90 730 62 c 0,91,92
 770 38 770 38 811 13 c 0,93,94
 854 -18 854 -18 854 -56 c 0,95,96
 854 -100 854 -100 823.5 -125.5 c 128,-1,97
 793 -151 793 -151 748 -151 c 0,98,99
 734 -151 734 -151 697 -140 c 0,100,101
 679 -135 679 -135 669 -135 c 0,102,103
 657 -135 657 -135 653 -145 c 1,104,-1
 643 -145 l 1,105,-1
 643 -35 l 1,60,-1
919 -35 m 1,106,-1
 931 -35 l 1,107,108
 949 -135 949 -135 1024 -135 c 0,109,110
 1047 -135 1047 -135 1063.5 -121 c 128,-1,111
 1080 -107 1080 -107 1080 -84 c 0,112,113
 1080 -53 1080 -53 1038 -27 c 0,114,115
 1000 -3 1000 -3 961 20 c 1,116,117
 919 52 919 52 919 94 c 0,118,119
 919 134 919 134 948 157.5 c 128,-1,120
 977 181 977 181 1019 181 c 0,121,122
 1038 181 1038 181 1071 168 c 0,123,124
 1079 166 1079 166 1085 166 c 0,125,126
 1095 166 1095 166 1097 175 c 1,127,-1
 1107 175 l 1,128,-1
 1107 78 l 1,129,-1
 1095 78 l 1,130,131
 1074 165 1074 165 1017 165 c 0,132,133
 995 165 995 165 979 152.5 c 128,-1,134
 963 140 963 140 963 119 c 0,135,136
 963 90 963 90 1006 62 c 0,137,138
 1046 38 1046 38 1087 13 c 0,139,140
 1130 -18 1130 -18 1130 -56 c 0,141,142
 1130 -100 1130 -100 1099.5 -125.5 c 128,-1,143
 1069 -151 1069 -151 1024 -151 c 0,144,145
 1010 -151 1010 -151 973 -140 c 0,146,147
 955 -135 955 -135 945 -135 c 0,148,149
 933 -135 933 -135 929 -145 c 1,150,-1
 919 -145 l 1,151,-1
 919 -35 l 1,106,-1
EndSplineSet
EndChar

StartChar: j
Encoding: 106 106 76
Width: 500
GlyphClass: 1
Flags: W
LayerCount: 2
Fore
SplineSet
14 449 m 1,0,-1
 220 449 l 1,1,-1
 220 434 l 1,2,3
 198 434 198 434 184 429 c 0,4,5
 162 423 162 423 161 404 c 0,6,7
 161 395 161 395 172 369 c 2,8,-1
 287 116 l 1,9,-1
 378 371 l 2,10,11
 383 385 383 385 386 407 c 0,12,13
 386 431 386 431 355 433 c 2,14,-1
 340 434 l 1,15,-1
 340 449 l 1,16,-1
 474 449 l 1,17,-1
 474 434 l 1,18,19
 442 430 442 430 427 389 c 2,20,-1
 273 -19 l 2,21,22
 238 -110 238 -110 214 -147 c 0,23,24
 168 -218 168 -218 104 -219 c 0,25,26
 73 -219 73 -219 53 -206 c 0,27,28
 29 -190 29 -190 28 -162 c 0,29,30
 28 -118 28 -118 79 -117 c 0,31,32
 91 -117 91 -117 116 -126.5 c 128,-1,33
 141 -136 141 -136 153 -136 c 0,34,35
 178 -136 178 -136 210 -74 c 0,36,37
 240 -17 240 -17 241 13 c 0,38,39
 241 23 241 23 236 35 c 2,40,-1
 80 373 l 2,41,42
 65 404 65 404 56 414 c 0,43,44
 40 431 40 431 14 435 c 1,45,-1
 14 449 l 1,0,-1
246 458 m 1024,46,-1
EndSplineSet
EndChar

StartChar: m
Encoding: 109 109 77
Width: 453
GlyphClass: 1
Flags: W
LayerCount: 2
Fore
SplineSet
50 -56 m 1,0,-1
 50 -14 l 1,1,-1
 92 -14 l 1,2,-1
 92 813 l 1,3,-1
 114 813 l 1,4,-1
 114 -14 l 1,5,-1
 213 -14 l 1,6,-1
 213 813 l 1,7,-1
 235 813 l 1,8,-1
 235 374 l 1,9,10
 310 360 310 360 362 306 c 0,11,12
 423 243 423 243 423 149 c 0,13,14
 423 83 423 83 379 23 c 0,15,16
 321 -56 321 -56 218 -56 c 2,17,-1
 50 -56 l 1,0,-1
EndSplineSet
EndChar

StartChar: o
Encoding: 111 111 78
Width: 825
GlyphClass: 1
Flags: W
LayerCount: 2
Fore
SplineSet
224 227 m 1,0,1
 75 325 75 325 75 493 c 0,2,3
 75 655 75 655 226 749 c 1,4,-1
 231 738 l 1,5,6
 128 667 128 667 128 499 c 0,7,8
 128 409 128 409 145 357 c 0,9,10
 168 286 168 286 231 236 c 1,11,-1
 224 227 l 1,0,1
602 236 m 1,12,13
 665 286 665 286 688 357 c 0,14,15
 705 409 705 409 705 499 c 0,16,17
 705 667 705 667 602 738 c 1,18,-1
 607 749 l 1,19,20
 758 655 758 655 758 493 c 0,21,22
 758 325 758 325 609 227 c 1,23,-1
 602 236 l 1,12,13
296 288 m 1,24,25
 380 302 380 302 429 365 c 0,26,27
 467 414 467 414 478 464 c 1,28,29
 431 432 431 432 389 432 c 0,30,31
 339 432 339 432 309.5 465.5 c 128,-1,32
 280 499 280 499 280 558 c 0,33,34
 280 606 280 606 308 645 c 0,35,36
 343 695 343 695 409 695 c 0,37,38
 448 695 448 695 479 670.5 c 128,-1,39
 510 646 510 646 523 608 c 0,40,41
 538 564 538 564 538 521 c 0,42,43
 538 491 538 491 531 464 c 0,44,45
 517 414 517 414 480 368 c 0,46,47
 439 318 439 318 389.5 297 c 128,-1,48
 340 276 340 276 298 276 c 1,49,-1
 296 288 l 1,24,25
481 537 m 0,50,51
 481 679 481 679 400 679 c 0,52,53
 335 679 335 679 335 576 c 0,54,55
 335 457 335 457 412 457 c 0,56,57
 429 457 429 457 449 466 c 128,-1,58
 469 475 469 475 478 487 c 1,59,60
 481 535 481 535 481 537 c 0,50,51
EndSplineSet
EndChar

StartChar: p
Encoding: 112 112 79
Width: 1145
GlyphClass: 1
Flags: W
LayerCount: 2
Fore
SplineSet
224 232 m 1,0,1
 75 330 75 330 75 498 c 0,2,3
 75 660 75 660 226 754 c 1,4,-1
 231 743 l 1,5,6
 128 672 128 672 128 504 c 0,7,8
 128 414 128 414 145 362 c 0,9,10
 168 291 168 291 231 241 c 1,11,-1
 224 232 l 1,0,1
374 612 m 2,12,13
 374 647 374 647 356 647 c 0,14,15
 347 647 347 647 313 634 c 1,16,-1
 313 642 l 1,17,-1
 425 700 l 1,18,-1
 425 342 l 2,19,20
 425 318 425 318 442 309 c 0,21,22
 452 304 452 304 482 302 c 1,23,-1
 482 294 l 1,24,-1
 317 294 l 1,25,-1
 317 302 l 1,26,27
 347 304 347 304 357 309 c 0,28,29
 374 318 374 318 374 342 c 2,30,-1
 374 612 l 2,12,13
902 241 m 1,31,32
 965 291 965 291 988 362 c 0,33,34
 1005 414 1005 414 1005 504 c 0,35,36
 1005 672 1005 672 902 743 c 1,37,-1
 907 754 l 1,38,39
 1058 660 1058 660 1058 498 c 0,40,41
 1058 330 1058 330 909 232 c 1,42,-1
 902 241 l 1,31,32
695 700 m 0,43,44
 760 700 760 700 797 640 c 0,45,46
 831 584 831 584 831 491 c 0,47,48
 831 414 831 414 802 358 c 0,49,50
 765 286 765 286 693 286 c 0,51,52
 630 286 630 286 594 346 c 0,53,54
 560 403 560 403 560 494 c 0,55,56
 560 573 560 573 589 630 c 0,57,58
 625 700 625 700 695 700 c 0,43,44
697 302 m 0,59,60
 743 302 743 302 761 361 c 0,61,62
 773 403 773 403 773 490 c 0,63,64
 773 684 773 684 699 684 c 0,65,66
 619 684 619 684 619 482 c 0,67,68
 619 302 619 302 697 302 c 0,59,60
EndSplineSet
EndChar

StartChar: r
Encoding: 114 114 80
Width: 505
GlyphClass: 1
Flags: W
LayerCount: 2
Fore
SplineSet
182 -98 m 2,0,1
 182 -135 182 -135 239 -135 c 1,2,-1
 239 -145 l 1,3,-1
 66 -145 l 1,4,-1
 66 -135 l 1,5,6
 123 -135 123 -135 123 -98 c 2,7,-1
 123 193 l 2,8,9
 123 230 123 230 66 230 c 1,10,-1
 66 240 l 1,11,-1
 239 240 l 1,12,-1
 239 230 l 1,13,14
 182 230 182 230 182 193 c 2,15,-1
 182 -98 l 2,0,1
376 -98 m 2,16,17
 376 -135 376 -135 433 -135 c 1,18,-1
 433 -145 l 1,19,-1
 259 -145 l 1,20,-1
 259 -135 l 1,21,22
 317 -135 317 -135 317 -98 c 2,23,-1
 317 193 l 2,24,25
 317 230 317 230 259 230 c 1,26,-1
 259 240 l 1,27,-1
 433 240 l 1,28,-1
 433 230 l 1,29,30
 376 230 376 230 376 193 c 2,31,-1
 376 -98 l 2,16,17
EndSplineSet
EndChar

StartChar: s
Encoding: 115 115 81
Width: 705
GlyphClass: 1
Flags: W
LayerCount: 2
Fore
SplineSet
192 -103 m 2,0,1
 192 -140 192 -140 249 -140 c 1,2,-1
 249 -150 l 1,3,-1
 76 -150 l 1,4,-1
 76 -140 l 1,5,6
 133 -140 133 -140 133 -103 c 2,7,-1
 133 188 l 2,8,9
 133 225 133 225 76 225 c 1,10,-1
 76 235 l 1,11,-1
 249 235 l 1,12,-1
 249 225 l 1,13,14
 192 225 192 225 192 188 c 2,15,-1
 192 -103 l 2,0,1
579 -103 m 2,16,17
 579 -140 579 -140 637 -140 c 1,18,-1
 637 -150 l 1,19,-1
 463 -150 l 1,20,-1
 463 -140 l 1,21,22
 520 -140 520 -140 520 -103 c 2,23,-1
 520 188 l 2,24,25
 520 225 520 225 463 225 c 1,26,-1
 463 235 l 1,27,-1
 637 235 l 1,28,-1
 637 225 l 1,29,30
 579 225 579 225 579 188 c 2,31,-1
 579 -103 l 2,16,17
386 -103 m 2,32,33
 386 -140 386 -140 443 -140 c 1,34,-1
 443 -150 l 1,35,-1
 269 -150 l 1,36,-1
 269 -140 l 1,37,38
 327 -140 327 -140 327 -103 c 2,39,-1
 327 188 l 2,40,41
 327 225 327 225 269 225 c 1,42,-1
 269 235 l 1,43,-1
 443 235 l 1,44,-1
 443 225 l 1,45,46
 386 225 386 225 386 188 c 2,47,-1
 386 -103 l 2,32,33
EndSplineSet
EndChar

StartChar: t
Encoding: 116 116 82
Width: 715
GlyphClass: 1
Flags: W
LayerCount: 2
Fore
SplineSet
182 -103 m 2,0,1
 182 -140 182 -140 239 -140 c 1,2,-1
 239 -150 l 1,3,-1
 66 -150 l 1,4,-1
 66 -140 l 1,5,6
 123 -140 123 -140 123 -103 c 2,7,-1
 123 188 l 2,8,9
 123 225 123 225 66 225 c 1,10,-1
 66 235 l 1,11,-1
 239 235 l 1,12,-1
 239 225 l 1,13,14
 182 225 182 225 182 188 c 2,15,-1
 182 -103 l 2,0,1
324 157 m 2,16,17
 294 225 294 225 259 225 c 1,18,-1
 259 236 l 1,19,-1
 414 236 l 1,20,-1
 414 225 l 1,21,22
 370 225 370 225 370 203 c 0,23,24
 370 195 370 195 397 135 c 2,25,-1
 482 -55 l 1,26,-1
 564 152 l 2,27,28
 578 187 578 187 578 200 c 0,29,30
 578 225 578 225 536 225 c 1,31,-1
 536 236 l 1,32,-1
 655 236 l 1,33,-1
 655 225 l 1,34,35
 624 225 624 225 607 184 c 0,36,37
 553 54 553 54 472 -158 c 1,38,-1
 464 -158 l 1,39,-1
 324 157 l 2,16,17
EndSplineSet
EndChar

StartChar: u
Encoding: 117 117 83
Width: 845
GlyphClass: 1
Flags: W
LayerCount: 2
Fore
SplineSet
219 237 m 1,0,1
 70 335 70 335 70 503 c 0,2,3
 70 665 70 665 221 759 c 1,4,-1
 226 748 l 1,5,6
 123 677 123 677 123 509 c 0,7,8
 123 419 123 419 140 367 c 0,9,10
 163 296 163 296 226 246 c 1,11,-1
 219 237 l 1,0,1
597 246 m 1,12,13
 660 296 660 296 683 367 c 0,14,15
 700 419 700 419 700 509 c 0,16,17
 700 677 700 677 597 748 c 1,18,-1
 602 759 l 1,19,20
 753 665 753 665 753 503 c 0,21,22
 753 335 753 335 604 237 c 1,23,-1
 597 246 l 1,12,13
389 617 m 2,24,25
 389 652 389 652 371 652 c 0,26,27
 362 652 362 652 328 639 c 1,28,-1
 328 647 l 1,29,-1
 440 705 l 1,30,-1
 440 347 l 2,31,32
 440 323 440 323 457 314 c 0,33,34
 467 309 467 309 497 307 c 1,35,-1
 497 299 l 1,36,-1
 332 299 l 1,37,-1
 332 307 l 1,38,39
 362 309 362 309 372 314 c 0,40,41
 389 323 389 323 389 347 c 2,42,-1
 389 617 l 2,24,25
EndSplineSet
EndChar

StartChar: v
Encoding: 118 118 84
Width: 505
GlyphClass: 1
Flags: W
LayerCount: 2
Fore
SplineSet
64 -134 m 1,0,-1
 238 342 l 1,1,-1
 413 -134 l 1,2,-1
 452 -134 l 1,3,-1
 453 -165 l 1,4,-1
 319 -165 l 1,5,-1
 319 -134 l 1,6,-1
 339 -134 l 1,7,-1
 217 197 l 1,8,-1
 98 -134 l 1,9,-1
 137 -134 l 1,10,-1
 136 -165 l 1,11,-1
 44 -165 l 1,12,-1
 41 -134 l 1,13,-1
 64 -134 l 1,0,-1
EndSplineSet
EndChar

StartChar: x
Encoding: 120 120 85
Width: 540
GlyphClass: 1
Flags: W
LayerCount: 2
Fore
SplineSet
345 450 m 1,0,1
 388 421 388 421 416 382 c 0,2,3
 436 354 436 354 465 295 c 0,4,5
 470 284 470 284 470 268 c 0,6,7
 470 185 470 185 371 34 c 128,-1,8
 272 -117 272 -117 215 -125 c 1,9,10
 249 -111 249 -111 310 -8 c 0,11,12
 380 110 380 110 380 195 c 0,13,14
 380 233 380 233 365 260 c 0,15,16
 320 343 320 343 265 380 c 1,17,-1
 200 345 l 1,18,-1
 202 164 l 1,19,-1
 255 110 l 1,20,21
 259 113 259 113 263 126 c 0,22,23
 266 136 266 136 274 136 c 256,24,25
 282 136 282 136 297 129 c 0,26,27
 300 128 300 128 253 66.5 c 128,-1,28
 206 5 206 5 206 8 c 2,29,-1
 119 98 l 1,30,-1
 115 505 l 1,31,32
 109 504 109 504 94.5 493 c 128,-1,33
 80 482 80 482 74 482 c 0,34,35
 64 482 64 482 60 500 c 0,36,37
 59 507 59 507 131 550 c 0,38,39
 207 595 207 595 233 595 c 0,40,41
 245 595 245 595 245 581 c 0,42,43
 245 568 245 568 223.5 557 c 128,-1,44
 202 546 202 546 200 535 c 0,45,46
 197 519 197 519 202 501 c 1,47,-1
 200 365 l 1,48,-1
 345 450 l 1,0,1
EndSplineSet
EndChar

StartChar: braceleft
Encoding: 123 123 86
Width: 439
GlyphClass: 1
Flags: W
LayerCount: 2
Fore
SplineSet
208 -204 m 1,0,-1
 208 742 l 1,1,-1
 232 742 l 1,2,-1
 232 -204 l 1,3,-1
 208 -204 l 1,0,-1
EndSplineSet
EndChar

StartChar: bar
Encoding: 124 124 87
Width: 666
GlyphClass: 1
Flags: W
LayerCount: 2
Fore
SplineSet
487 537 m 0,0,1
 498 505 498 505 498 473 c 0,2,3
 498 450 498 450 493 419 c 0,4,5
 476 322 476 322 415 207 c 0,6,7
 371 123 371 123 316 76 c 0,8,9
 232 4 232 4 162 4 c 0,10,11
 91 4 91 4 60 75 c 0,12,13
 48 102 48 102 48 140 c 0,14,15
 48 173 48 173 56 207 c 0,16,17
 83 328 83 328 133 418 c 0,18,19
 172 488 172 488 226 537 c 0,20,21
 312 616 312 616 384 616 c 0,22,23
 459 616 459 616 487 537 c 0,0,1
165 292 m 1,24,-1
 137 202 l 2,25,26
 125 163 125 163 125 121 c 0,27,28
 125 37 125 37 174 37 c 0,29,30
 202 37 202 37 243 75 c 0,31,32
 300 128 300 128 331 202 c 2,33,-1
 369 293 l 1,34,-1
 165 292 l 1,24,-1
386 337 m 1,35,-1
 411 420 l 2,36,37
 431 486 431 486 421 541 c 0,38,39
 419 554 419 554 408 568 c 0,40,41
 393 587 393 587 374 587 c 0,42,43
 337 586 337 586 293 540 c 0,44,45
 244 489 244 489 215 420 c 2,46,-1
 180 338 l 1,47,-1
 386 337 l 1,35,-1
582 517 m 2,48,49
 577 506 577 506 566 506 c 0,50,51
 553 506 553 506 557 519 c 2,52,-1
 612 708 l 2,53,54
 615 717 615 717 629.5 723 c 128,-1,55
 644 729 644 729 653 728 c 0,56,57
 658 728 658 728 665.5 720 c 128,-1,58
 673 712 673 712 673 703 c 0,59,60
 673 700 673 700 672 697 c 2,61,-1
 582 517 l 2,48,49
EndSplineSet
EndChar

StartChar: braceright
Encoding: 125 125 88
Width: 910
GlyphClass: 1
Flags: W
LayerCount: 2
Fore
SplineSet
393 44 m 256,0,1
 393 67 393 67 410 84 c 128,-1,2
 427 101 427 101 449 101 c 0,3,4
 472 101 472 101 490 84 c 128,-1,5
 508 67 508 67 508 44 c 0,6,7
 508 20 508 20 490.5 3 c 128,-1,8
 473 -14 473 -14 449 -14 c 0,9,10
 426 -14 426 -14 409.5 3.5 c 128,-1,11
 393 21 393 21 393 44 c 256,0,1
60 44 m 256,12,13
 60 67 60 67 77 84 c 128,-1,14
 94 101 94 101 116 101 c 0,15,16
 139 101 139 101 157 84 c 128,-1,17
 175 67 175 67 175 44 c 0,18,19
 175 20 175 20 157.5 3 c 128,-1,20
 140 -14 140 -14 116 -14 c 0,21,22
 93 -14 93 -14 76.5 3.5 c 128,-1,23
 60 21 60 21 60 44 c 256,12,13
726 44 m 256,24,25
 726 67 726 67 743 84 c 128,-1,26
 760 101 760 101 782 101 c 0,27,28
 805 101 805 101 823 84 c 128,-1,29
 841 67 841 67 841 44 c 0,30,31
 841 20 841 20 823.5 3 c 128,-1,32
 806 -14 806 -14 782 -14 c 0,33,34
 759 -14 759 -14 742.5 3.5 c 128,-1,35
 726 21 726 21 726 44 c 256,24,25
EndSplineSet
EndChar

StartChar: asciitilde
Encoding: 126 126 89
Width: 800
GlyphClass: 1
Flags: W
LayerCount: 2
Fore
SplineSet
553 332 m 1,0,-1
 386 115 l 1,1,2
 378 72 378 72 394 52 c 0,3,4
 404 39 404 39 418 39 c 0,5,6
 430 39 430 39 445.5 49.5 c 128,-1,7
 461 60 461 60 480 94 c 1,8,-1
 493 94 l 1,9,-1
 477 53 l 2,10,11
 464 19 464 19 429 -1 c 0,12,13
 413 -11 413 -11 401 -11 c 0,14,15
 387 -11 387 -11 378 2 c 0,16,17
 362 19 362 19 358 85 c 1,18,19
 336 63 336 63 314 41 c 0,20,21
 275 10 275 10 228 -2 c 0,22,23
 190 -11 190 -11 165 -11 c 0,24,25
 133 -11 133 -11 106 1 c 0,26,27
 53 25 53 25 53 84 c 0,28,29
 53 134 53 134 90 204 c 0,30,31
 129 279 129 279 216 322 c 0,32,33
 255 342 255 342 305 342 c 0,34,35
 370 342 370 342 388 286 c 0,36,37
 399 252 399 252 391 210 c 1,38,-1
 486 332 l 1,39,-1
 553 332 l 1,0,-1
652 382 m 2,40,41
 647 371 647 371 636 371 c 0,42,43
 623 371 623 371 627 384 c 2,44,-1
 682 573 l 2,45,46
 685 582 685 582 699.5 588 c 128,-1,47
 714 594 714 594 723 593 c 0,48,49
 728 593 728 593 735.5 585 c 128,-1,50
 743 577 743 577 743 568 c 0,51,52
 743 565 743 565 742 562 c 2,53,-1
 652 382 l 2,40,41
348 152 m 1,54,55
 361 208 361 208 361 238 c 0,56,57
 361 256 361 256 357 268 c 0,58,59
 345 300 345 300 316 309 c 0,60,61
 299 314 299 314 286 314 c 0,62,63
 263 314 263 314 234 291 c 0,64,65
 173 243 173 243 144 141 c 0,66,67
 136 116 136 116 132 89 c 0,68,69
 126 50 126 50 142 32 c 0,70,71
 154 13 154 13 182 12 c 0,72,73
 199 9 199 9 236 30 c 0,74,75
 269 49 269 49 305 96 c 2,76,-1
 348 152 l 1,54,55
EndSplineSet
EndChar

